<svg xmlns="http://www.w3.org/2000/svg" viewBox="0 0 5029 5028.94">
  <g>
    <path d="M1076.49,2994.77a1089.509,1089.509,0,0,0,240.25,22.38h.03" fill="none" stroke="#000" stroke-linecap="round" stroke-linejoin="round" stroke-width="29"/>
    <path d="M1009.94,2816.03c-.02-.01-.04-.01-.06-.02-105.51-39-195.1-98.3-257.85-160.25a.6.6,0,0,1-.21-.21q-18.63-18.06-35.91-37.8a.031.031,0,0,1-.01-.02c-83.9-95.95-140.27-219.34-132.02-344.43,11.2-170.39,138.56-313.69,311.47-348.66-27.07,43.29-29.83,100.04-7.04,145.62,22.79,45.53,70.41,78.55,122.2,84.6,62.99,7.48,126.52-22.68,161.73-78.55,83.26-132.47-28.79-333.29-283.62-316.11-63.99,4.32-126.27,22.16-183.38,50.48-.13.06-.26.12-.39.17-.03.02-.06.03-.09.05-.2.1-.35.17-.45.22l-.16.08q-18.9,9.45-36.7,20.16a.161.161,0,0,1-.07.04,530.665,530.665,0,0,0-142.1,124.31c-224.03,280.8-151.81,771.7,362.49,981.58.01,0,.01.01.02.01" fill="none" stroke="#000" stroke-linecap="round" stroke-linejoin="round" stroke-width="29"/>
    <line x1="1372.001" y1="2861.722" x2="1371.949" y2="2861.722" fill="none" stroke="#000" stroke-linecap="round" stroke-linejoin="round" stroke-width="29"/>
    <path d="M1951.76,2833.61a4.6,4.6,0,0,0,.63.42h.05c.16.21.26.31.37.31.01.01.03.02.04.03a.349.349,0,0,0,.09.06c10.28,6.59,20.35,13.4,30.38,20.36.05.05.05.1.1.05a1182.165,1182.165,0,0,1,193.26,169.33q10.89,11.85,21.5,23.96,2.13,2.43,4.22,4.87,3.915,4.5,7.75,9.04.33.375.63.75,5.61,6.63,11.14,13.33,4.725,5.73,9.37,11.52,1.98,2.46,3.95,4.93,3.075,3.855,6.12,7.74l3.36,4.32q5.7,7.32,11.28,14.74,1.86,2.445,3.67,4.89,3.495,4.68,6.95,9.39l3.93,5.4q1.8,2.475,3.58,4.97,5.355,7.455,10.6,14.99a1337.781,1337.781,0,0,1,174.3,351.84c44.8,138.79,55.44,165.65,55.44,329.21,0,158.81-73.18,415.68-179.99,535.95-18.31,20.65-38.18,40.47-50.9,64.77-34.26,65.13-1.88,134.63,59.56,145.21,50.21,8.61,97.28-26.57,101.28-76.15" fill="none" stroke="#000" stroke-linecap="round" stroke-linejoin="round" stroke-width="29"/>
    <path d="M2249.73,4164.46c182.17-349.17,51.46-750.83-216.16-1022.38-1.66-1.69-3.34-3.38-5.02-5.07q-2.01-2.04-4.03-4.03c-.19-.18-.37-.36-.55-.54q-6.24-6.2-12.57-12.28-11.265-10.83-22.82-21.35c-1.13-1.04-2.27-2.07-3.42-3.11q-6.795-6.135-13.68-12.16c-.11-.1-.26-.21-.37-.31q-17.925-15.645-36.48-30.56c-85.14-68.36-180.02-124.23-282.76-158.56h-.05c-90.09-30.17-185-42.82-279.82-32.39h-.05c-119.26,12.95-222.31,62.35-295.46,133.05-100.04,96.69-147.66,241.95-123.56,377.03a163.3,163.3,0,0,1,71.09-46c118.85-38.58,241.21,61.71,223.49,190.74-14.07,101.8-112.31,178.58-226.88,167.73-130.32-12.28-261.64-138.55-264.07-361.81-1.52-138.34,47.26-275.53,131.21-385.17a630.6,630.6,0,0,1,54.78-62.58,659.193,659.193,0,0,1,67.33-58.7c135.09-102.63,317.31-160.62,516.08-139.23" fill="none" stroke="#000" stroke-linecap="round" stroke-linejoin="round" stroke-width="29"/>
    <path d="M1651.87,2894.11h-.05c-16.17-.02-109.53-9.75-218.12,40.26-44.04,20.35-84.63,48.24-116.96,82.78-34.25,36.58-59.23,80.61-69.23,131.01-15.7,79.17,11.68,164.24,67.69,223.64,18.35,19.53,40.7,36.62,67.75,36.2,42.37-.47,67.99-44.83,47.36-78.91-8.14-13.67-22.22-22.79-34.32-33.38-48.14-41.99-64.2-109.93-28.74-163.93,1.23,34.97,39.5,57.97,73.96,41.31a58.929,58.929,0,0,0,26.03-25.03c17.88-33.33,1.6-71.9,56.01-105.93,16.07-9.96,34.16-16.43,52.31-22.01,136.21-41.68,257.35-25.39,359.07,32.55.06.03.12.07.18.1" fill="none" stroke="#000" stroke-linecap="round" stroke-linejoin="round" stroke-width="29"/>
    <path d="M1555.54,3519.87q-20.58,51.165-37.92,103.48c-.01.03-.02.05-.03.08a1.631,1.631,0,0,1-.08.29c-74.17,223.41-99.62,402.71-314.02,435.49-8.3,1.31-16.75,2.3-24.99.89-8.26-1.36-16.22-5.24-20.75-12.36-8.24-13.14-1.04-28.95,5.11-41.15q12.2-24.09,25.4-47.67c-87.51,21.06-170.39-53.25-152.4-141.45,71.81,53.94,166.19,63.36,245.49,31.24,59.46-24.04,107.03-69.57,147.29-118.39a840.957,840.957,0,0,0,113.81-180.61c.05-.11.1-.21.15-.31.06-.15.09-.26.11-.32Q1549.43,3534.6,1555.54,3519.87Z" fill="none" stroke="#000" stroke-linecap="round" stroke-linejoin="round" stroke-width="29"/>
    <path d="M752.03,2655.76a.6.6,0,0,1-.21-.21,333.041,333.041,0,0,1-35.91-37.8.031.031,0,0,1-.01-.02c-68.87-84.72-99.57-203.99-59.21-293.47,21.83-48.47,59.92-77.55,99.87-85.48,69.77-14.22,107.96,44.31,81.26,82.19-16.11,22.78-47.79,26.55-71.14,39.48-28.85,15.94-46.94,45.17-55.86,77.3-26.02,93.63,21.46,207.9,106.51,273.87" fill="none" stroke="#000" stroke-linecap="round" stroke-linejoin="round" stroke-width="29"/>
    <path d="M2111.984,3230.514c-121.527,79.161-223.176,187.777-297.652,330.719-36.128,69.36-65.32,148.553-47.409,225,4.117,17.628,11.1,34.852,25.4,46.21,24.223,19.291,61.085,13.671,77.868-12.622,3.855,65.236,61.612,110.476,122.305,108.744a149.627,149.627,0,0,0,7.823-144.105c33.443,6.922,78.7,7.847,109.84-5.529,37.068-16.058,50.765-49.984,38.8-79.694-63.513,22.527-137.069-1.126-173.574-61.648-26.509-43.829-27.571-96.349-17.942-146.505,19.113-99.813,78.812-191.19,158.188-255.927" fill="none" stroke="#000" stroke-linecap="round" stroke-linejoin="round" stroke-width="29"/>
    <path d="M2514.49,4104.55c-.21-18.35-.13-35.58,0-51.1C2514.62,4068.97,2514.69,4086.2,2514.49,4104.55Z" fill="none" stroke="#000" stroke-linecap="round" stroke-linejoin="round" stroke-width="29"/>
    <path d="M2514.49,4053.44c-.24-27.31-.64-49.33,0-62.87C2515.13,4004.11,2514.72,4026.13,2514.49,4053.44Z" fill="none" stroke="#000" stroke-linecap="round" stroke-linejoin="round" stroke-width="29"/>
    <path d="M2514.49,4551.77c-46.07,0-93.91-53.03-76.86-110.19,5.49-18.42,24.77-50.65,33.12-68.04,35.73-74.43,42.78-183.76,43.74-268.99.96,85.23,8.01,194.57,43.74,268.99,8.34,17.39,27.63,49.62,33.12,68.04C2608.44,4498.9,2560.44,4551.77,2514.49,4551.77Z" fill="none" stroke="#000" stroke-linecap="round" stroke-linejoin="round" stroke-width="29"/>
    <path d="M1971.48,3083.54c-46-46-119.68-105.22-171.44-144.63-112.96-85.87-201.57-140.74-274.08-262.13-99.5-166.59-144.59-436.8-82.09-638.07,85.62-275.63,359.75-438.8,616.48-381.42,65.72,14.67,122.86,41.5,163.98,72.34" fill="none" stroke="#000" stroke-linecap="round" stroke-linejoin="round" stroke-width="29"/>
    <path d="M2475.07,1686.07a770.659,770.659,0,0,0-181.28,22.31h-.01q-10.755,2.67-21.22,5.64-25.005,7.035-48.23,15.61c-62.17,22.93-112.82,54.59-143.01,82.46,48.32,20.94,66.81,55.99,64.67,85.33-2.32,31.66-28.79,54.86-58.1,52.88-27.38-1.84-49.85-24.89-51.48-55.23-1.73-33.22,19.98-60.96,44.91-82.98-92.09-43.62-300.86-10.45-410,133.57-35.46,46.78-58.26,102.02-70.25,158.97-32.8,155.74,2.81,389.57,137.27,548.05,60.24,70.88,138.04,125.25,213.42,180.93a4.6,4.6,0,0,0,.63.42h.05c.16.21.26.31.37.31.01.01.03.02.04.03a.349.349,0,0,0,.09.06c2.21,1.63,31.84,23.26,46.44,34.02a.653.653,0,0,0,.31.26q30.12,22.215,59.98,44.65" fill="none" stroke="#000" stroke-linecap="round" stroke-linejoin="round" stroke-width="29"/>
    <path d="M1653.43,1115.4h.04q11.22-1.26,22.4-2.09,11.055-.855,22.08-1.3c192.26-7.99,374.64,70.49,521.27,197.56,124.24,107.73,209.84,237.42,255.85,376.5a787.285,787.285,0,0,1,39.4,218.86,787.6,787.6,0,0,1,39.43-218.8c45.6-137.83,130.47-267.88,255.82-376.56,148.48-128.61,331.07-205.57,521.3-197.59q11.025.465,22.07,1.31,11.19.84,22.4,2.1c.02,0,.05.01.07.01" fill="none" stroke="#000" stroke-linecap="round" stroke-linejoin="round" stroke-width="29"/>
    <path d="M3518.2,1146.846c197.977,67,345.473,226.128,364.829,401.181,10.287,92.152-16.8,184.286-86.318,243.41-77.015,65.52-185.112,68.816-255.614,11.526-59.7-48.489-80.087-135.342-34.945-202.468,43.16-64.1,129.215-81.739,194.071-42.559-41.424-123.588-145.753-223.577-300.207-257.179" fill="none" stroke="#000" stroke-linecap="round" stroke-linejoin="round" stroke-width="29"/>
    <path d="M3205.374,1294.6c-226.63,32.334-415.865,191.467-470.183,413.854" fill="none" stroke="#000" stroke-linecap="round" stroke-linejoin="round" stroke-width="29"/>
    <path d="M1510.787,1146.846c-198.523,67.184-345.492,226.6-364.881,401.181-11.543,104.5,25.2,191.464,86.37,243.41,77.015,65.52,185.112,68.816,255.614,11.526,60.649-49.322,79.491-136.4,34.892-202.468-42.888-63.933-129.01-81.831-194.018-42.559,41.59-124.083,146.317-223.711,300.155-257.179" fill="none" stroke="#000" stroke-linecap="round" stroke-linejoin="round" stroke-width="29"/>
    <path d="M1823.616,1294.6c231.789,33.169,416.976,196.163,470.183,413.854" fill="none" stroke="#000" stroke-linecap="round" stroke-linejoin="round" stroke-width="29"/>
    <path d="M2293.8,1708.46c0-.03-.01-.05-.01-.08h-.01c-13.02-73.45-46.89-141.13-92.76-194.93l-.01-.01a407.564,407.564,0,0,0-29.88-31.49c-119.62-113.19-298.54-146.98-433.99-89.76-139.04,58.73-177.18,187.91-131.59,242.21,17.39,20.74,43.2,27.62,64.31,20.55,21-6.97,36.18-27.28,36.41-51.79.25-24.46-13.7-44.84,6.98-74.9,6.11-8.81,14.03-16.38,22.64-22.95,29.94-22.95,67.44-34.63,104.99-41.15,104.64-18.1,200.62,2.41,282.68,59.25,66.54,45.88,119.25,113.23,149,190.61,0,.01.01.01.01.02" fill="none" stroke="#000" stroke-linecap="round" stroke-linejoin="round" stroke-width="29"/>
    <path d="M1823.62,1294.6a534.689,534.689,0,0,1-51.79-38.97c-46.45-39.5-87.51-87.59-118.36-140.23-47.58-81.21-70.87-173.27-52.14-261.36,21.81-102.46,100.14-189.14,209.93-217.07-42.61,101.2,41.17,210.99,151.92,199.03,117.05-12.64,174.36-150.5,88.56-251.39-58.98-69.57-175.71-107.11-303.12-67.65-119.11,36.78-244.31,142.97-287.8,269.7-76.24,221.8,79.93,467.28,276.32,605.53" fill="none" stroke="#000" stroke-linecap="round" stroke-linejoin="round" stroke-width="29"/>
    <path d="M1864.04,909.54c-8.21,37.65-67.6,42.91-110.1,70.93-28.9,19.04-50.07,49.23-56.28,82.56-3.01,16.16-2.53,32.7.29,48.98a219.672,219.672,0,0,0,12.85,44.07c22.43,55.65,62.22,104.52,112.82,138.52a314.433,314.433,0,0,1-51.79-38.97c-41.95-38.52-78.04-89.92-95.96-142.32-6.54-19.13-10.66-38.39-11.75-57.21-4.91-84.36,32-151.82,78.39-182.44C1809.57,829.76,1872.99,869.23,1864.04,909.54Z" fill="none" stroke="#000" stroke-linecap="round" stroke-linejoin="round" stroke-width="29"/>
    <path d="M1999.69,2868.71a.653.653,0,0,1-.31-.26c-5.42-4.38-10.69-8.92-15.96-13.61-.1.1-61.3-50.79-116.31-130.13-70.82-102.2-94.79-195.97-92.26-275.49.57-17.99,2.71-36.45,11.01-52.62,12.53-24.31,38.11-40.92,65.4-46.21a63.367,63.367,0,0,0,32.8,28.16c46.46,17.36,95.35-21.53,82.93-82.25-16.73-80.93-122.49-117.43-202.31-49.34-47.84,40.85-76.42,110.96-55.02,211.34,22.24,104.09,104.8,256.08,242.73,375.73h.05c.16.21.26.31.37.31.01.01.03.02.04.03a843.818,843.818,0,0,0,106.82,78.99,707.578,707.578,0,0,1-59.98-44.65" fill="none" stroke="#000" stroke-linecap="round" stroke-linejoin="round" stroke-width="29"/>
    <path d="M2514.52,732.84c-.01.16-.01.32-.02.48-2.73,57.75-27.86,139.83-57.77,182.32.09-.23.17-.46.25-.69,3.93-10.68,7.65-25.5,10.86-41.92v-.04c8.43-43.22,13.31-97.55,9.13-116.95-12.47-57.55-55.32-101.55-101.6-137.32-62.21-47.89-90.59-52.74-110.26-81-20.72-29.61-3.29-55.88,23.37-60.29,19.68-3.15,69.92,6.72,117.77,40.73,65.75,46.83,104.94,123.31,108.21,196.25Q2514.88,723.68,2514.52,732.84Z" fill="none" stroke="#000" stroke-linecap="round" stroke-linejoin="round" stroke-width="29"/>
    <path d="M1405.17,1099.23c-126.71,3.09-171.54,97.33-223.43,100.55-46.82,2.66-77.58-57.4-29.16-105.82a111.9,111.9,0,0,1,47.83-28.32c-78.08.16-105.53,21.89-140.14,12.1a57.341,57.341,0,0,1-40.16-69.31,59.314,59.314,0,0,1,68.37-43.71c35.75,6.87,49.2,38.18,118.87,73.17a107.626,107.626,0,0,1-29.16-46.47c-20.27-65.5,36.26-104.01,75.89-81C1298.72,936.27,1293.94,1040.06,1405.17,1099.23Z" fill="none" stroke="#000" stroke-linecap="round" stroke-linejoin="round" stroke-width="29"/>
    <path d="M781.65,2958.73a188.22,188.22,0,0,0-60.34,65.87h-.05c-17.36,31.93-25.59,69.85-34.84,87.16-22.22,41.22-75.03,28.8-84.81-13.41-5-21.13,1.17-49.62,20.24-71.61-55.24,35.23-63.86,62.68-92.89,71.19-39.78,11.89-76.58-28.58-59.72-66.7a48.614,48.614,0,0,1,26.39-25.19c28.18-11.21,52.01,4.72,118.03-1.88-25.07-4.54-50.69-20.83-61.81-43.19-19.52-39.05,13.38-80.9,57.22-62.53C643.02,2912.67,693.18,2965.72,781.65,2958.73Z" fill="none" stroke="#000" stroke-linecap="round" stroke-linejoin="round" stroke-width="29"/>
    <path d="M906.241,1453.209C884.37,1611.931,791.417,1748.694,666.6,1831.927" fill="none" stroke="#000" stroke-linecap="round" stroke-linejoin="round" stroke-width="29"/>
    <path d="M876.47,1328.76a211.8,211.8,0,0,1,8.22-79.65c7.34-24.02,19.25-46.22,36.06-62.83a117.554,117.554,0,0,1,45.74-27.96,189.426,189.426,0,0,1,5.74,191.67" fill="none" stroke="#000" stroke-linecap="round" stroke-linejoin="round" stroke-width="29"/>
    <path d="M994.71,1275.88h.03c60.97-2.3,100.27,64.21,59.48,121.21-18.48,25.85-54.28,46.82-58.31,80.89-2.83,23.9,20.34,31.34,30.82,7.1,3.1-7.18,5.5-17.31,13.4-22.28,13.55-8.5,34.65,2.66,35.84,27.33.36,8.66-1.83,17.32-4.7,25.56-31.71,91.16-177.36,187.87-257.33,235.27-54.47,32.31-102.77,56.72-109.09,59.89-.03.02-.06.03-.09.05-.2.1-.35.17-.45.22l-.16.08" fill="none" stroke="#000" stroke-linecap="round" stroke-linejoin="round" stroke-width="29"/>
    <path d="M1335.17,2553.31a597.569,597.569,0,0,1,84.5,60.31c-86.24-28.67-175.54-31.66-210.29-25.09-43.04,7.93-47.4,30.58-71.56,40.53-34.89,14.21-76.2-17.82-71.97-62.07,2.89-29.29,25.22-56.58,65.14-66.24,61.04-14.62,138.34,13.68,204.18,52.56" fill="none" stroke="#000" stroke-linecap="round" stroke-linejoin="round" stroke-width="29"/>
    <path d="M1335.17,2553.31a571.686,571.686,0,0,0,84.5,60.31,621.5,621.5,0,0,1-88.04-158.5c-29.34-77.87-2.75-87.86-1.93-122.88a51.87,51.87,0,0,0-35.31-50.54c-28.6-9.57-62.79,6.22-76.51,40.16-13.4,32.86-4.01,68.52,11.48,100.45,24.38,50.53,63.37,94.17,105.4,130.65l.41.35" fill="none" stroke="#000" stroke-linecap="round" stroke-linejoin="round" stroke-width="29"/>
    <path d="M1187.42,2447.5a109.406,109.406,0,0,0-80.53-3.7c-20.13,7.04-37.7,19.92-57.94,26.6a103.919,103.919,0,0,1-84.28-9.02,73.366,73.366,0,0,1,31.91-37.19c17.74-10.12,39.02-12.68,59.62-12.57A262.863,262.863,0,0,1,1187.42,2447.5Z" fill="none" stroke="#000" stroke-linecap="round" stroke-linejoin="round" stroke-width="29"/>
    <path d="M1054.01,2352.06l-45.43-1.83A80.486,80.486,0,0,1,928,2360.61a42.98,42.98,0,0,1,18.57-21.07c22.05-12.57,60.92-7.08,85.01,1.93l.39.15A142.32,142.32,0,0,1,1054.01,2352.06Z" fill="none" stroke="#000" stroke-linecap="round" stroke-linejoin="round" stroke-width="29"/>
    <path d="M1187.42,2447.5a306.169,306.169,0,0,1-79.95-115.21c-7.88-20.08-13.61-41.62-10.8-62.95a83.138,83.138,0,0,1,21.18-44.85c22.63,20.34,36.87,49.23,38.9,79.11,1.57,22.12-3.33,44.29-2.19,66.45A124.387,124.387,0,0,0,1187.42,2447.5Z" fill="none" stroke="#000" stroke-linecap="round" stroke-linejoin="round" stroke-width="29"/>
    <path d="M1054.01,2352.06a174.677,174.677,0,0,1-13.77-13.98c-.11-.05-.21-.1-.21-.21-18.32-20.95-40.1-58.95-36.56-86.32a48.507,48.507,0,0,1,11.79-25.87,91.436,91.436,0,0,1,20.44,82.62Z" fill="none" stroke="#000" stroke-linecap="round" stroke-linejoin="round" stroke-width="29"/>
    <path d="M1054.01,2352.06c-7.98-3.85-15.3-7.31-22.04-10.44-42.89-19.96-62.39-27.11-80.6-42.34a103.067,103.067,0,0,1-30.1-42.15c54.39,1.67,77.98,39.47,118.76,80.74,0,.11.1.16.21.21Q1047.05,2345.115,1054.01,2352.06Z" fill="none" stroke="#000" stroke-linecap="round" stroke-linejoin="round" stroke-width="29"/>
    <path d="M2514.49,2948.753c237.511,30.863,475.057-113.6,539.17-359.664,48.044-184.4-13.969-386.2-168.24-522.714-104.222-92.226-205.973-111.315-283.957-92.6-28.545,6.849-56.912,20.344-69.138,47.032-22.187,48.432,27.019,99.115,78.142,80.243-11.958,25.029-2.394,54.92,22.036,68.964,24.252,13.941,55.546,7.9,72.473-13.95,1.492,26.862,23.544,48.575,51.292,50.263,17.421,1.06,35.168-6.54,46.112-19.748-49,42.583-46.474,118.2,5.083,157.648,16.988,13,37.611,20.637,55.873,31.889,49.386,30.431,77.092,82.945,91.956,139.017,27.534,103.869,11.143,218.057-44.59,310.649" fill="none" stroke="#000" stroke-linecap="round" stroke-linejoin="round" stroke-width="29"/>
    <path d="M2653.62,2927.691c111.4-48.586,169.707-164,158.505-244.941-7.816-56.48-48.714-100.726-101.249-113-53.96-12.609-103.97,12.336-121.544,53.845-12.777,30.178-5.741,65.957,21.242,85.241,35.253,25.195,82.991,6.87,92.321-32.152C2747.777,2763.107,2725.085,2865.973,2653.62,2927.691Z" fill="none" stroke="#000" stroke-linecap="round" stroke-linejoin="round" stroke-width="29"/>
    <path d="M2443.6,2912.741c-90.391-63.255-52.321-164.7,21.385-158.41,19.7,1.68,38.393,12.34,49.505,28.231,11.112-15.891,29.8-26.551,49.505-28.231,73.684-6.286,111.816,95.127,21.383,158.409a179.668,179.668,0,0,1-70.889,29.421A179.666,179.666,0,0,1,2443.6,2912.741Z" fill="none" stroke="#000" stroke-linecap="round" stroke-linejoin="round" stroke-width="29"/>
    <path d="M2335.174,2970.4c175.139-28.8,278.546-20.524,385.259-67.061,121.689-53.069,177.424-155.429,166.55-246.259-9.277-77.485-66.345-143.19-145.652-165.326-49.7-13.872-104.785-9.483-151.215-33.085-94.682-48.128-88.831-176.149-14.059-196.943,42.047-11.692,83.524,19.416,83.405,61.258,44.463-4.814,75.394,42.568,51.61,79.606,127.381,19,204.219,140.062,175.911,254.49" fill="none" stroke="#000" stroke-linecap="round" stroke-linejoin="round" stroke-width="29"/>
    <path d="M1559.6,4146.73c-7.13-17.71-14.11-35.48-21.09-53.29a322.987,322.987,0,0,1,13.45,30.7C1554.73,4131.44,1557.29,4138.99,1559.6,4146.73Z" fill="none" stroke="#000" stroke-linecap="round" stroke-linejoin="round" stroke-width="29"/>
    <path d="M1653.64,4412.31c-4.18,29.86-25.28,53.49-52.62,59.61-31.2,6.99-60.49-10.95-66.71-38.02-5.03-22.06,6.33-44.33,14.34-63.47,29.21-70.52,32.7-150.68,10.95-223.7C1641.81,4352.95,1659.59,4370.06,1653.64,4412.31Z" fill="none" stroke="#000" stroke-linecap="round" stroke-linejoin="round" stroke-width="29"/>
    <path d="M3952.45,2994.77a1089.012,1089.012,0,0,1-240.06,22.38h-.17" fill="none" stroke="#000" stroke-linecap="round" stroke-linejoin="round" stroke-width="29"/>
    <path d="M4019,2816.03c.03-.01.05-.02.08-.03,68.34-25.19,133.83-60.13,192.58-104.38l.02-.02a680.975,680.975,0,0,0,65.43-55.97q20.8-20.205,39.84-42.32c.03-.03.06-.07.1-.11q10.14-11.8,19.74-24.15c229.45-295.76,64.9-610.22-203.2-664.41,27.12,43.29,29.83,100.04,7.04,145.62-37.37,74.82-132.9,108.92-214.78,68.43-54.95-27.02-93.53-83.45-96.02-150.37-3.21-90.78,58.69-166.3,142.07-202.36,160.82-69.54,400.59-4.01,540.27,181.4a534.532,534.532,0,0,1,52.46,85.21c.58,1.18,1.16,2.35,1.73,3.52q2.13,4.395,4.19,8.85c143.82,310.77-1.83,697.74-429.4,872.41" fill="none" stroke="#000" stroke-linecap="round" stroke-linejoin="round" stroke-width="29"/>
    <line x1="3657.146" y1="2861.722" x2="3656.937" y2="2861.722" fill="none" stroke="#000" stroke-linecap="round" stroke-linejoin="round" stroke-width="29"/>
    <path d="M2779.26,4164.46c-183.82-352.33-49.92-762.04,230.2-1036.45q3.48-3.435,6.99-6.81h.01q3.24-3.135,6.49-6.2c.42-.41.85-.81,1.28-1.22q3.2-3.03,6.42-6.03,1.77-1.665,3.56-3.3,11.475-10.62,23.25-20.91h.05c.52-.47,1.05-.99,1.57-1.41l.03-.03c1.01-.96,26.41-22.42,35.02-29.33,84.25-67.67,179.99-124.24,282.99-158.66h.05c90.47-30.29,185.33-42.77,279.77-32.39h.21c119.86,13.23,222.22,62.44,295.3,133.05,100.08,96.7,147.71,241.95,123.61,377.03-82.8-92.38-240.59-62.64-285.55,59.77-29.19,79.74,3.5,165.38,69.31,213.16,94.63,68.68,238.82,51.78,331.35-65.71,114.32-145.11,117.19-423.18-50.02-641.67A647.534,647.534,0,0,0,4019.08,2816c-136.27-103.81-318.59-160.47-516.05-139.22" fill="none" stroke="#000" stroke-linecap="round" stroke-linejoin="round" stroke-width="29"/>
    <path d="M3077.54,2833.35c-.23.16-.44.34-.66.51-.07.04-.15.1-.23.15-3.74,2.68-14.39,9.32-30.3,20.28-55.23,38-173.87,127.87-286.79,283.22q-4.095,5.625-8.12,11.3-3.615,5.085-7.17,10.2a1339.416,1339.416,0,0,0-174.31,351.84c-44.85,138.79-55.49,165.65-55.49,329.21,0,158.81,73.17,415.68,179.99,535.95,18.3,20.65,38.23,40.47,50.95,64.77,24.58,46.97,15.16,96.93-16.95,124.97-52.68,46.21-138.25,13.94-143.89-55.91" fill="none" stroke="#000" stroke-linecap="round" stroke-linejoin="round" stroke-width="29"/>
    <path d="M2638.6,4581.292c8.844,25.4,9.276,64.319-7.145,82.979a38.907,38.907,0,0,1-54.138,3.495c-4.094,35.122-31.317,60.956-62.847,67.385-31.7-6.479-58.963-32.685-62.8-67.385a38.907,38.907,0,0,1-54.138-3.495c-16.578-18.7-15.907-57.753-7.2-82.979" fill="none" stroke="#000" stroke-linecap="round" stroke-linejoin="round" stroke-width="29"/>
    <path d="M3377.12,2894.11h.05c125.22-8.22,256.17,38.53,335.22,123.04,34.55,36.94,59.19,81.09,69.09,131.01,15.7,79.17-11.68,164.24-67.69,223.64-18.41,19.59-40.88,36.62-67.75,36.2-42.21-.47-67.98-44.56-47.41-78.91,8.19-13.67,22.27-22.79,34.37-33.38,47.74-41.72,64.43-109.59,28.74-163.93a48.6,48.6,0,0,1-11.06,28.79c-24.16,28.8-70.41,21.99-88.93-12.51-22.09-41.19,7.48-92.34-108.32-127.94-135.79-41.55-257-25.63-359.3,32.65" fill="none" stroke="#000" stroke-linecap="round" stroke-linejoin="round" stroke-width="29"/>
    <path d="M2213.74,4343.57c-65.59,89.75-202.62,134.42-350.12,81.31-117.73-42.4-240.57-148.9-311.66-300.74-.02-.05-.05-.1-.07-.15q-7.11-15.09-13.38-30.55c-62.56-154.04-63.23-333.1-21-469.72.04-.12.05-.21.08-.29.01-.03.02-.05.03-.08a758.269,758.269,0,0,1,24.98-73.95c.06-.15.09-.26.11-.32,74.29-190.01,219.37-357.19,428.77-465.54q6.885,6.03,13.68,12.16c1.15,1.04,2.29,2.07,3.42,3.11q11.55,10.515,22.82,21.35,6.33,6.09,12.57,12.28c.18.18.36.36.55.54,1.35,1.34,2.69,2.69,4.03,4.03q2.52,2.535,5.02,5.07,37.56,38.16,71.32,79.62c-319.72,152.57-470.73,451.94-435.86,691.17,22.87,156.98,123.79,289.6,276.79,335.56-25.38-69.17-2.5-147.73,55.39-190.62,58.64-43.43,139.01-39.99,195.79,13.77C2267.35,4138.04,2276.24,4258.14,2213.74,4343.57Z" fill="none" stroke="#000" stroke-linecap="round" stroke-linejoin="round" stroke-width="29"/>
    <path d="M2867.88,3007.5a1252.286,1252.286,0,0,0-108.32,130.01q-4.095,5.625-8.12,11.3-3.615,5.085-7.17,10.2c-144.18-33.17-315.36-33.17-459.54,0h-.01q-5.25-7.545-10.59-14.99-1.785-2.49-3.58-4.97l-3.93-5.4q-3.45-4.71-6.95-9.39-1.83-2.445-3.67-4.89-5.58-7.41-11.28-14.74l-3.36-4.32q-3.045-3.885-6.12-7.74c-1.31-1.65-2.62-3.29-3.95-4.93q-4.635-5.79-9.37-11.52-5.52-6.7-11.14-13.33-.3-.375-.63-.75-3.84-4.545-7.75-9.04-2.085-2.445-4.22-4.87-10.59-12.12-21.5-23.96-7.725-8.415-15.62-16.67C2372.39,2944.87,2656.56,2944.84,2867.88,3007.5Z" fill="none" stroke="#000" stroke-linecap="round" stroke-linejoin="round" stroke-width="29"/>
    <path d="M3490.51,4093.38q-6.18,15.135-13.17,29.96c-90.4,191.98-279.94,342.85-473.13,322.66-73.85-7.82-145.93-43.55-188.96-102.43-37.4-51.12-50.9-118.08-35.99-179.11,20.04-81.61,83.72-132.84,151.36-136.38,111.15-5.86,192.62,110.72,152.55,220.35,257.14-77.26,379.55-404.6,188.75-718.75-80.89-133.15-204.76-239.76-347.82-307.98a1130.053,1130.053,0,0,1,85.36-93.69c2.32-2.28,4.65-4.54,6.99-6.81h.01q3.24-3.12,6.49-6.2c.42-.41.85-.81,1.28-1.22q3.2-3.03,6.42-6.03,1.77-1.665,3.56-3.3,11.475-10.62,23.25-20.91h.05c207.46,107.34,354.69,274.49,429.41,467.03q13.92,35.835,24.45,72.78a.916.916,0,0,0,.11.37C3558.01,3787.8,3547.21,3953.91,3490.51,4093.38Z" fill="none" stroke="#000" stroke-linecap="round" stroke-linejoin="round" stroke-width="29"/>
    <path d="M3840.73,3958.92q13.23,23.625,25.4,47.67c3.29,6.52,6.52,13.09,7.98,20.18,2.49,11.97-.89,23.19-11.89,29.32-11.05,6.24-24.36,5.08-36.72,3.12-213.92-32.67-239.5-210.57-314.02-435.49a.916.916,0,0,1-.11-.37q-17.37-52.26-37.92-103.42,6.345,15.345,13.47,30.64a840.519,840.519,0,0,0,113.43,179.75c40.26,48.82,87.83,94.35,147.29,118.39,78.85,31.94,173.48,22.92,245.44-31.24C4010.96,3904.11,3929.41,3980.26,3840.73,3958.92Z" fill="none" stroke="#000" stroke-linecap="round" stroke-linejoin="round" stroke-width="29"/>
    <path d="M4276.96,2655.76c.05-.04.1-.09.15-.13a313.068,313.068,0,0,0,39.84-42.32c.03-.03.06-.07.1-.11,63.91-81.57,95.75-199.13,55.25-288.94-38.65-85.83-124.27-104.11-165.9-74.01-24.81,18.07-30.45,49.28-15.23,70.72,16.16,22.84,47.76,26.5,71.08,39.48,23.54,12.96,44.79,37.68,55.92,77.3,25.89,93.16-21.02,207.55-106.49,273.85l-.02.02" fill="none" stroke="#000" stroke-linecap="round" stroke-linejoin="round" stroke-width="29"/>
    <path d="M2916.954,3230.514c128.664,83.642,227.269,195.747,297.7,330.719,35.987,69.09,65.369,148.906,47.357,225-4.149,17.765-10.951,34.777-25.348,46.21-24.217,19.286-61.083,13.675-77.868-12.622-4,65.071-61.232,110.487-122.3,108.744a149.6,149.6,0,0,1-7.875-144.105c-33.176,6.884-78.541,7.895-109.788-5.529-37.068-16.058-50.765-49.984-38.8-79.694,63.513,22.527,137.069-1.126,173.574-61.648,26.509-43.829,27.571-96.349,17.942-146.505-19-99.234-78.363-190.833-158.24-255.979" fill="none" stroke="#000" stroke-linecap="round" stroke-linejoin="round" stroke-width="29"/>
    <path d="M3057.51,3083.54c.52-.47,1.05-.99,1.57-1.41l.03-.03a4.318,4.318,0,0,1,.7-.65c180.52-168.28,285.17-211.93,379.06-317a567.251,567.251,0,0,0,64.16-87.67c50.42-84.41,80.74-181.06,97.21-278.36,20.19-119.48,20.87-243.82-15.12-359.71-44.28-142.54-146.4-268.87-282.53-337.24-175.59-88.16-372.88-65.93-498.16,28.03" fill="none" stroke="#000" stroke-linecap="round" stroke-linejoin="round" stroke-width="29"/>
    <path d="M2553.9,1686.13a790.359,790.359,0,0,1,181.29,22.33q10.68,2.625,21.23,5.58c16.3,4.56,32.35,9.71,48.01,15.46,54.29,19.94,103.93,47.16,143.1,82.51.03.03.06.05.09.08,24.56,22.18,46.78,48.99,44.91,82.98-1.63,30.13-23.81,53.37-51.48,55.23-47.81,3.24-81.19-56.97-38.75-106.34,11.42-13.3,26.85-23.96,45.23-31.95,104.86-45.51,306.02-3.75,410.14,133.65,35.46,46.78,58.26,102.02,70.25,158.97,32.89,156.17-3.11,389.96-137.32,548.05-60.14,70.78-136.28,127.2-213.06,180.67-.23.16-.44.34-.66.51a1.952,1.952,0,0,1-.23.17,1.244,1.244,0,0,1-.36.26c-4.59,3.05-24.63,17.81-46.38,33.93-24.81,18.39-51.83,38.56-60.59,45.14" fill="none" stroke="#000" stroke-linecap="round" stroke-linejoin="round" stroke-width="29"/>
    <path d="M2735.19,1708.46c12.67-71.5,45.21-139.25,92.31-194.53l.02-.02a408.833,408.833,0,0,1,30.34-31.96c121.56-115.01,300.88-146.06,434-89.77a302.693,302.693,0,0,1,51.15,27.6c74.86,50.46,103.81,122.59,98.42,170.75-7.81,67.81-79.5,87.51-108.95,44.18-19.52-28.47-3.59-52.27-5.53-76.77-6.2-74.4-161.56-119.4-289.52-92.11-128.68,27.46-233.79,125.39-281.01,248.21" fill="none" stroke="#000" stroke-linecap="round" stroke-linejoin="round" stroke-width="29"/>
    <path d="M3291.85,1392.19a.01.01,0,0,0,.01-.01,812.957,812.957,0,0,0,108.16-91.42c75.09-75.63,136.45-167.23,166.48-264.17,51.63-166.45,8.33-318.08-132.06-434.14-140.28-115.78-292.26-123.01-392.78-69.06-121.86,65.36-135.28,199.4-55.86,268.03,45.44,39.35,112.08,46.68,165.91,18.1,62.84-33.27,96.01-110.93,66.02-182.55,109.41,27.83,188.04,114.23,209.93,217.07,18.74,88.19-4.68,180.26-52.17,261.35-30.95,52.86-72.13,101.05-118.51,140.44a529.463,529.463,0,0,1-51.61,38.77" fill="none" stroke="#000" stroke-linecap="round" stroke-linejoin="round" stroke-width="29"/>
    <path d="M3364.81,1056.1a216.6,216.6,0,0,1-11.72,57.19c-17.9,52.48-54.01,103.95-96.11,142.54a315.151,315.151,0,0,1-51.61,38.77c64.93-43.63,114.59-117.4,125.65-182.62,2.91-17.14,3.15-33.69.31-48.95-6.21-33.33-27.38-63.52-56.28-82.56-42.65-28.12-101.7-33.11-110.15-70.93-8.73-40.55,54.85-79.68,121.52-35.88C3332.68,904.09,3369.75,971.43,3364.81,1056.1Z" fill="none" stroke="#000" stroke-linecap="round" stroke-linejoin="round" stroke-width="29"/>
    <path d="M3076.29,2834.29a842.381,842.381,0,0,1-106.97,79.07,711.089,711.089,0,0,0,59.35-44.13c.41-.33.82-.67,1.24-1.01q8.1-6.615,16.44-13.93a735.764,735.764,0,0,0,115.53-129.58c70.91-102.58,94.78-196.07,92.26-275.49-.57-17.99-2.71-36.45-11.01-52.62-12.63-24.5-38.38-40.99-65.45-46.21a63.258,63.258,0,0,1-32.75,28.16c-46.45,17.35-95.36-21.47-82.93-82.25,16.38-80.42,122.14-117.73,202.31-49.34,47.71,40.82,76.45,110.84,55.02,211.34-22.2,103.88-104.56,255.78-242.57,375.57a.45.45,0,0,0-.11.14v.02a1.244,1.244,0,0,1-.36.26" fill="none" stroke="#000" stroke-linecap="round" stroke-linejoin="round" stroke-width="29"/>
    <path d="M2274.66,737.48c-4.55,33.31-46.8,47.45-77.35,36.51-40.29-14.23-46.07-66.29-2.5-92.79,90.32-54.48,290.36,39.54,273.03,191.79v.04a156.564,156.564,0,0,1-10.86,41.92,153.5,153.5,0,0,1-25.49,41.68,5.6,5.6,0,0,0-.4.45c-.06.08-.12.16-.17.23a156.82,156.82,0,0,1-89.82,51.06c-62.71,11.41-106.02-22.22-108.95-47.09-6.39-52.39,113.19-83.76,198.94-4.2,19.18,17.8,36.68,41.15,50.68,71.06,20.48,43.99,29.27,96.86,32.68,154.2,4.35,72.91.02,153.05.02,231.33,0,20.5.21,41.05,0,61.6q-.24-30.825,0-61.6c-.79-83.47-4.22-161.82-.02-231.33,3.52-58.37,12.42-110.5,32.77-154.2,12.38-26.5,29.49-50.99,50.86-70.87a189.6,189.6,0,0,1,40.73-29.11c49.93-26.33,104.01-22.92,132.99-6.57,18.93,10.53,26.55,26.61,25.04,39.69-2.91,24.76-46.18,58.54-108.95,47.09a156.163,156.163,0,0,1-89.81-51.1l-.01-.01a8.113,8.113,0,0,1-.57-.63,153.509,153.509,0,0,1-25.72-42.23.031.031,0,0,1-.01-.02,157.1,157.1,0,0,1-10.62-41.35c-.01-.08-.02-.15-.03-.23-17.11-151.86,182.59-246.16,273.06-191.6,43.4,26.4,37.96,78.43-2.5,92.79-30.62,10.97-72.8-3.19-77.35-36.51" fill="none" stroke="#000" stroke-linecap="round" stroke-linejoin="round" stroke-width="29"/>
    <path d="M2771.44,522.49c-8.03,26.95-39.22,43.82-60.5,56.8-66.81,40.68-142.41,99.92-158.92,176.75-4.41,20.48,1.07,75.03,9.1,116.76,3.3,17.07,7.01,32,10.65,41.58a.031.031,0,0,0,.01.02c.16.42.32.84.48,1.24-30.24-42.95-55.03-125.13-57.76-182.32a186.669,186.669,0,0,1-.04-18.91c0-.06.01-.13.01-.19,6.38-118.65,97.49-218.27,201.37-235.8,16.72-2.89,32.21-2.77,45.27,8.29C2771.45,495.64,2775.57,508.63,2771.44,522.49Z" fill="none" stroke="#000" stroke-linecap="round" stroke-linejoin="round" stroke-width="29"/>
    <path d="M2580.34,419.54c-13.83,41.94-47,84.44-65.87,175.5-18.88-91.1-52.32-134.24-65.82-175.5-16.01-49.09-4.73-90.09,19.56-114.38,31.75-31.76,60.83-31.82,92.52,0C2584.93,329.27,2596.43,370.2,2580.34,419.54Z" fill="none" stroke="#000" stroke-linecap="round" stroke-linejoin="round" stroke-width="29"/>
    <path d="M4003.09,1050.98a58.255,58.255,0,0,1-34.37,26.76c-35.12,9.89-61.11-11.94-140.19-12.1,29.7,8.65,57.71,31.14,68.06,58.67,18.38,48.49-25.77,94.27-75.57,67.29-39.1-21.58-91.36-89.79-197.2-92.37,93.18-49.57,107.28-134,131.69-169.87,30.88-45.84,92.16-25.67,98.89,26.13,3.8,29.11-10.46,61.51-32.81,82.4,69.52-34.84,83.21-66.29,118.86-73.17C3989.49,955.4,4027.58,1007.95,4003.09,1050.98Z" fill="none" stroke="#000" stroke-linecap="round" stroke-linejoin="round" stroke-width="29"/>
    <path d="M4560.85,3067.27c-9.06,25.14-36.47,37.92-60.87,30.66-29.03-8.56-37.76-36.06-92.84-71.19a90.708,90.708,0,0,1,20.34,41.31c11.22,56.38-39.2,83.69-70.35,61.18-35.34-25.84-21.9-111.6-109.79-170.5,106.17,8.39,151.25-66.66,195.11-64.88,20.09.73,37.39,16.44,40.11,37.5,4.61,35.58-30.81,66.13-67.28,72.86,65.69,6.41,90.52-9.18,118.03,1.83A47.86,47.86,0,0,1,4560.85,3067.27Z" fill="none" stroke="#000" stroke-linecap="round" stroke-linejoin="round" stroke-width="29"/>
    <path d="M4144.23,1249.12c.01,0,.01,0,.02-.01,76.34-26.77,139.31,76.84,101.52,162.43,3.32,6.63,11.61,11.38,22.53,7.3,9.23-3.45,19.23-12.31,30.57-5.58,6.78,4.02,10.17,11.58,11.52,19.35,6.95,39.82-31.86,76.32-46.15,113.28-20.08,51.84-1.15,108.84,31.19,154.07,54.78,76.63,148.63,171.89,216.74,267.4,20.36,28.54,38.42,57.11,52.46,85.21.58,1.18,1.16,2.35,1.73,3.52q2.16,4.44,4.19,8.85" fill="none" stroke="#000" stroke-linecap="round" stroke-linejoin="round" stroke-width="29"/>
    <path d="M4122.738,1453.208c21.871,158.723,114.824,295.485,239.644,378.719" fill="none" stroke="#000" stroke-linecap="round" stroke-linejoin="round" stroke-width="29"/>
    <path d="M4152.52,1328.765c4.412-49.2-9.431-108.056-44.281-142.489a117.922,117.922,0,0,0-45.74-27.956,189.146,189.146,0,0,0-5.789,191.672" fill="none" stroke="#000" stroke-linecap="round" stroke-linejoin="round" stroke-width="29"/>
    <path d="M4034.231,1275.879c-60.489-2.312-100.52,63.843-59.458,121.21,18.487,25.861,54.507,47.085,58.31,80.893,2.733,24.29-20.625,31.043-30.824,7.093-3.13-7.351-5.518-17.284-13.456-22.27-13.524-8.5-34.6,2.672-35.779,27.329-.365,8.658,1.774,17.316,4.694,25.556,31.676,91.05,177.1,187.746,257.284,235.274,59.192,35.064,109.738,60.182,109.84,60.24" fill="none" stroke="#000" stroke-linecap="round" stroke-linejoin="round" stroke-width="29"/>
    <path d="M3693.64,2553.33a577.476,577.476,0,0,0-84.32,60.29,546.448,546.448,0,0,1,172.48-27.85c81.52,0,78.18,30.44,109.37,43.29,19.04,7.75,42.32,1.92,57.63-15.96,35.48-41.45,7.74-123.87-100.4-115.37-54.25,4.29-107.18,27.72-154.33,55.34-.14.08-.29.17-.43.26" fill="none" stroke="#000" stroke-linecap="round" stroke-linejoin="round" stroke-width="29"/>
    <path d="M3609.32,2613.62a567.687,567.687,0,0,0,84.32-60.29c67.78-58.49,114.2-126.91,122.48-180.31,13.2-86.59-73.81-120.73-107.65-71.66-19.22,27.71-3.07,53.21,1.2,76.51,4.79,25.98-3.03,52.47-12.31,77.25a621.5,621.5,0,0,1-88.04,158.5" fill="none" stroke="#000" stroke-linecap="round" stroke-linejoin="round" stroke-width="29"/>
    <path d="M4064.27,2461.38a103.781,103.781,0,0,1-84.23,9.02c-20.24-6.68-37.81-19.56-57.94-26.6a109.394,109.394,0,0,0-80.53,3.7,262.863,262.863,0,0,1,131.22-35.88c20.6-.11,41.88,2.45,59.62,12.57A73.037,73.037,0,0,1,4064.27,2461.38Z" fill="none" stroke="#000" stroke-linecap="round" stroke-linejoin="round" stroke-width="29"/>
    <path d="M4100.99,2360.61c-25.95,10.96-57.23,7.9-80.58-10.38l-45.43,1.83a142.581,142.581,0,0,1,22.06-10.45c.12-.05.25-.09.37-.14,24.43-9.16,63.24-14.34,85.01-1.93A43.224,43.224,0,0,1,4100.99,2360.61Z" fill="none" stroke="#000" stroke-linecap="round" stroke-linejoin="round" stroke-width="29"/>
    <path d="M3921.52,2332.29a306.169,306.169,0,0,1-79.95,115.21,124.664,124.664,0,0,0,32.86-77.45c1.14-22.16-3.76-44.33-2.25-66.45,2.09-29.88,16.33-58.77,38.96-79.11a83.138,83.138,0,0,1,21.18,44.85C3935.13,2290.67,3929.4,2312.21,3921.52,2332.29Z" fill="none" stroke="#000" stroke-linecap="round" stroke-linejoin="round" stroke-width="29"/>
    <path d="M4019.52,2287.33a170.283,170.283,0,0,1-30.96,50.98.462.462,0,0,0-.07.07,163.235,163.235,0,0,1-13.51,13.68l18.31-43.76a91.429,91.429,0,0,1,20.44-82.62C4029.58,2243.6,4028.14,2265.12,4019.52,2287.33Z" fill="none" stroke="#000" stroke-linecap="round" stroke-linejoin="round" stroke-width="29"/>
    <path d="M4107.67,2257.13a102.493,102.493,0,0,1-30.05,42.15c-18.13,15.17-37.79,22.41-80.58,42.33-6.75,3.14-14.07,6.6-22.06,10.45q7.29-7.29,13.51-13.68a.462.462,0,0,1,.07-.07c37.7-38.68,48.9-54.35,70.81-67.25A102.192,102.192,0,0,1,4107.67,2257.13Z" fill="none" stroke="#000" stroke-linecap="round" stroke-linejoin="round" stroke-width="29"/>
    <path d="M2514.489,2948.753c-237.512,30.862-475.058-113.6-539.17-359.664-48.044-184.4,13.969-386.2,168.24-522.714,104.222-92.227,205.973-111.315,283.957-92.6,28.542,6.848,56.913,20.346,69.137,47.032,22.189,48.439-27.028,99.112-78.143,80.243,11.958,25.028,2.395,54.92-22.035,68.964-24.252,13.941-55.546,7.9-72.473-13.95-1.492,26.862-23.544,48.574-51.292,50.263-17.421,1.06-35.167-6.54-46.113-19.748,49,42.583,46.475,118.2-5.082,157.648-16.988,13-37.611,20.636-55.873,31.889-49.386,30.431-77.092,82.944-91.956,139.017-27.534,103.869-11.143,218.057,44.589,310.648" fill="none" stroke="#000" stroke-linecap="round" stroke-linejoin="round" stroke-width="29"/>
    <path d="M2375.357,2927.69c-111.4-48.586-169.706-164-158.5-244.941,7.815-56.473,48.7-100.723,101.249-113,53.959-12.61,103.97,12.336,121.544,53.845,12.777,30.177,5.742,65.955-21.242,85.241-35.277,25.213-83,6.834-92.321-32.153C2281.2,2763.107,2303.893,2865.973,2375.357,2927.69Z" fill="none" stroke="#000" stroke-linecap="round" stroke-linejoin="round" stroke-width="29"/>
    <path d="M2693.805,2970.4c-175.139-28.8-278.546-20.524-385.259-67.062-121.688-53.068-177.425-155.427-166.55-246.258,9.276-77.485,66.345-143.19,145.651-165.326,49.7-13.872,104.785-9.483,151.216-33.085,94.669-48.122,88.84-176.146,14.058-196.943-42.047-11.693-83.525,19.416-83.4,61.258-44.464-4.815-75.394,42.568-51.611,79.606-127.38,18.995-204.218,140.061-175.91,254.49" fill="none" stroke="#000" stroke-linecap="round" stroke-linejoin="round" stroke-width="29"/>
    <path d="M3490.51,4093.38q-10.485,26.67-21.07,53.25c2.32-7.81,4.97-15.6,7.9-23.29C3481.25,4113.11,3485.67,4103.06,3490.51,4093.38Z" fill="none" stroke="#000" stroke-linecap="round" stroke-linejoin="round" stroke-width="29"/>
    <path d="M3494.68,4433.9c-6.24,27.16-35.6,44.99-66.71,38.02-27.3-6.11-48.41-29.6-52.62-59.61-6.01-41.61,11.7-59.44,94.09-265.68-21.8,73.07-18.36,153.23,10.9,223.8C3487.89,4388.7,3499.82,4411.39,3494.68,4433.9Z" fill="none" stroke="#000" stroke-linecap="round" stroke-linejoin="round" stroke-width="29"/>
    <path d="M2514.47,14.5C1133.81,14.5,14.5,1133.76,14.5,2514.47S1133.81,5014.44,2514.47,5014.44c1380.71,0,2500.03-1119.26,2500.03-2499.97C5014.44,1133.76,3895.18,14.5,2514.47,14.5Zm0,4812.34c-1277.08,0-2312.32-1035.29-2312.32-2312.37S1237.39,202.15,2514.47,202.15,4826.84,1237.39,4826.84,2514.47,3791.55,4826.84,2514.47,4826.84Z" fill="none" stroke="#000" stroke-linecap="round" stroke-linejoin="round" stroke-width="29"/>
    <path d="M2863.29,1193.26c-27.59,7.31-56.33,9.44-84.44,14.56-48.93,8.91-96.23,27.69-135.87,57-55.45,40.97-76.92,84.37-93.93,138.94a832.662,832.662,0,0,0-34.58,172.12,832.566,832.566,0,0,0-34.53-172.12c-16.75-53.31-37.29-97.05-93.98-138.94-39.59-29.31-86.95-48.09-135.87-57-28.06-5.12-56.8-7.25-84.39-14.56-21.9-5.73-51.21-22.74-41.88-47.67,13.93-37.18,61.91-7.35,68.17-24.04,5.79-15.44-36.56-27.02-50.8-50.38-21.32-35.54-13.62-80.94,22.12-104.05a317.728,317.728,0,0,0,39.53,48.24c111.27,111.73,234.61,87.56,289.1,259.32a484.036,484.036,0,0,1,22.53,138.99,485.82,485.82,0,0,1,22.58-138.99c22.35-70.44,52.31-107.86,107.13-142.44,63.36-39.95,156.88-67.97,221.45-165.12,35.92,23.13,43.38,68.69,22.17,104.05-14.24,23.36-56.59,34.94-50.85,50.38,6.26,16.69,54.24-13.14,68.22,24.04C2914.5,1170.52,2885.14,1187.53,2863.29,1193.26Z" fill="none" stroke="#000" stroke-linecap="round" stroke-linejoin="round" stroke-width="29"/>
    <path d="M884.71,1249.12c-.01,0-.01,0-.02-.01-76.23-26.82-139.27,76.82-101.47,162.43-3.32,6.63-11.61,11.38-22.54,7.3-9.23-3.45-19.22-12.31-30.56-5.58-6.74,3.99-10.17,11.6-11.52,19.35-6.95,39.82,31.86,76.32,46.15,113.28,20.08,51.84,1.15,108.84-31.19,154.07-52.61,73.6-141.07,164.26-208.28,255.75-26.91,36.62-50.41,73.38-66.84,109.23" fill="none" stroke="#000" stroke-linecap="round" stroke-linejoin="round" stroke-width="29"/>
  </g>
</svg>
