<?xml version="1.0" encoding="UTF-8" standalone="no"?>
<!-- Created by Vectric (http://www.vectric.com/) -->

<svg
   xmlns:dc="http://purl.org/dc/elements/1.1/"
   xmlns:cc="http://creativecommons.org/ns#"
   xmlns:rdf="http://www.w3.org/1999/02/22-rdf-syntax-ns#"
   xmlns:svg="http://www.w3.org/2000/svg"
   xmlns="http://www.w3.org/2000/svg"
   xmlns:sodipodi="http://sodipodi.sourceforge.net/DTD/sodipodi-0.dtd"
   xmlns:inkscape="http://www.inkscape.org/namespaces/inkscape"
   width="4.00000000in"
   height="25.00000000in"
   viewBox="0.00000000 0.00000000 4.00000000 25.00000000"
   id="svg2"
   version="1.1"
   sodipodi:docname="fretboard test_welded.svg"
   inkscape:version="0.92.2 (5c3e80d, 2017-08-06)">
  <metadata
     id="metadata62">
    <rdf:RDF>
      <cc:Work
         rdf:about="">
        <dc:format>image/svg+xml</dc:format>
        <dc:type
           rdf:resource="http://purl.org/dc/dcmitype/StillImage" />
        <dc:title></dc:title>
      </cc:Work>
    </rdf:RDF>
  </metadata>
  <defs
     id="defs60" />
  <sodipodi:namedview
     pagecolor="#ffffff"
     bordercolor="#666666"
     borderopacity="1"
     objecttolerance="10"
     gridtolerance="10"
     guidetolerance="10"
     inkscape:pageopacity="0"
     inkscape:pageshadow="2"
     inkscape:window-width="1366"
     inkscape:window-height="745"
     id="namedview58"
     showgrid="false"
     inkscape:zoom="0.27812867"
     inkscape:cx="142.69891"
     inkscape:cy="1315.0054"
     inkscape:window-x="-8"
     inkscape:window-y="-8"
     inkscape:window-maximized="1"
     inkscape:current-layer="8d9c372d-ad55-41f3-bc32-c14161c5add9" />
  <g
     inkscape:groupmode="layer"
     id="8d9c372d-ad55-41f3-bc32-c14161c5add9"
     inkscape:label="Layer 1"
     style="stroke:#000000">
    <path
       style="color:#000000;font-style:normal;font-variant:normal;font-weight:normal;font-stretch:normal;font-size:medium;line-height:normal;font-family:sans-serif;font-variant-ligatures:normal;font-variant-position:normal;font-variant-caps:normal;font-variant-numeric:normal;font-variant-alternates:normal;font-feature-settings:normal;text-indent:0;text-align:start;text-decoration:none;text-decoration-line:none;text-decoration-style:solid;text-decoration-color:#000000;letter-spacing:normal;word-spacing:normal;text-transform:none;writing-mode:lr-tb;direction:ltr;text-orientation:mixed;dominant-baseline:auto;baseline-shift:baseline;text-anchor:start;white-space:normal;shape-padding:0;clip-rule:nonzero;display:inline;overflow:visible;visibility:visible;opacity:1;isolation:auto;mix-blend-mode:normal;color-interpolation:sRGB;color-interpolation-filters:linearRGB;solid-color:#000000;solid-opacity:1;vector-effect:none;fill:#000000;fill-opacity:1;fill-rule:nonzero;stroke:none;stroke-width:0.95999998;stroke-linecap:round;stroke-linejoin:round;stroke-miterlimit:4;stroke-dasharray:none;stroke-dashoffset:0;stroke-opacity:1;color-rendering:auto;image-rendering:auto;shape-rendering:auto;text-rendering:auto;enable-background:accumulate"
       d="M 47.658203,89.998047 A 1.5361536,1.5361536 0 0 0 47.625,90 a 1.5361536,1.5361536 0 0 0 -0.1875,0.1875 1.5361536,1.5361536 0 0 0 -0.1875,0 1.5361536,1.5361536 0 0 0 -0.1875,0 1.5361536,1.5361536 0 0 0 0,0.1875 1.5361536,1.5361536 0 0 0 -0.1875,0 1.5361536,1.5361536 0 0 0 0,0.1875 1.5361536,1.5361536 0 0 0 -0.1875,0.1875 1.5361536,1.5361536 0 0 0 -0.1875,0.1875 1.5361536,1.5361536 0 0 0 0,0.1875 1.5361536,1.5361536 0 0 0 0,0.1875 1.5361536,1.5361536 0 0 0 0,0.1875 v 29.43555 a 1.5361536,1.5361536 0 0 0 0,0.1875 1.5361536,1.5361536 0 0 0 0,0.1875 1.5361536,1.5361536 0 0 0 0,0.1875 V 152.625 a 1.5361536,1.5361536 0 0 0 0,0.1875 1.5361536,1.5361536 0 0 0 0,0.1875 1.5361536,1.5361536 0 0 0 0,0.18555 v 33.1875 a 1.5361536,1.5361536 0 0 0 0,0.1875 1.5361536,1.5361536 0 0 0 0,0.1875 1.5361536,1.5361536 0 0 0 0,0.1875 v 35.25 a 1.5361536,1.5361536 0 0 0 0,0.1875 1.5361536,1.5361536 0 0 0 0,0.1875 1.5361536,1.5361536 0 0 0 0,0.1875 v 37.125 a 1.5361536,1.5361536 0 0 0 0,0.18554 1.5361536,1.5361536 0 0 0 0,0.1875 1.5361536,1.5361536 0 0 0 0,0.1875 V 300 a 1.5361536,1.5361536 0 0 0 0,0.1875 1.5361536,1.5361536 0 0 0 0,0.1875 1.5361536,1.5361536 0 0 0 0,0.1875 v 41.80859 a 1.5361536,1.5361536 0 0 0 0,0.1875 1.5361536,1.5361536 0 0 0 0,0.1875 1.5361536,1.5361536 0 0 0 0,0.1875 v 44.4375 a 1.5361536,1.5361536 0 0 0 0,0.18555 1.5361536,1.5361536 0 0 0 0,0.1875 1.5361536,1.5361536 0 0 0 0,0.1875 V 435 a 1.5361536,1.5361536 0 0 0 0,0.1875 1.5361536,1.5361536 0 0 0 0,0.1875 1.5361536,1.5361536 0 0 0 0,0.1875 V 485.25 a 1.5361536,1.5361536 0 0 0 0,0.18555 1.5361536,1.5361536 0 0 0 0,0.1875 1.5361536,1.5361536 0 0 0 0,0.1875 v 53.0625 a 1.5361536,1.5361536 0 0 0 0,0.1875 1.5361536,1.5361536 0 0 0 0,0.1875 1.5361536,1.5361536 0 0 0 0,0.1875 V 595.5 a 1.5361536,1.5361536 0 0 0 0,0.1875 1.5361536,1.5361536 0 0 0 0,0.1875 1.5361536,1.5361536 0 0 0 0,0.1875 V 655.5 a 1.5361536,1.5361536 0 0 0 0,0.1875 1.5361536,1.5361536 0 0 0 0,0.1875 1.5361536,1.5361536 0 0 0 0,0.1875 v 63 a 1.5361536,1.5361536 0 0 0 0,0.18555 1.5361536,1.5361536 0 0 0 0,0.1875 1.5361536,1.5361536 0 0 0 0,0.1875 v 66.75 a 1.5361536,1.5361536 0 0 0 0,0.1875 1.5361536,1.5361536 0 0 0 0,0.1875 1.5361536,1.5361536 0 0 0 0,0.1875 v 70.6875 a 1.5361536,1.5361536 0 0 0 0,0.18554 1.5361536,1.5361536 0 0 0 0,0.1875 1.5361536,1.5361536 0 0 0 0,0.1875 v 75.1875 a 1.5361536,1.5361536 0 0 0 0,0.1875 1.5361536,1.5361536 0 0 0 0,0.1875 1.5361536,1.5361536 0 0 0 0,0.1875 v 79.50001 a 1.5361536,1.5361536 0 0 0 0,0.1914 1.5361536,1.5361536 0 0 0 0,0.1914 1.5361536,1.5361536 0 0 0 0,0.1934 v 84.375 a 1.5361536,1.5361536 0 0 0 0,0.1914 1.5361536,1.5361536 0 0 0 0,0.1914 1.5361536,1.5361536 0 0 0 0,0.1933 v 89.2481 a 1.5361536,1.5361536 0 0 0 0,0.1933 1.5361536,1.5361536 0 0 0 0,0.1915 1.5361536,1.5361536 0 0 0 0,0.1914 v 94.6875 a 1.5361536,1.5361536 0 0 0 0,0.1933 1.5361536,1.5361536 0 0 0 0,0.1914 1.5361536,1.5361536 0 0 0 0,0.1914 v 100.3125 a 1.5361536,1.5361536 0 0 0 0,0.1934 1.5361536,1.5361536 0 0 0 0,0.1914 1.5361536,1.5361536 0 0 0 0,0.1914 v 106.5 a 1.5361536,1.5361536 0 0 0 0,0.1934 1.5361536,1.5361536 0 0 0 0,0.1914 1.5361536,1.5361536 0 0 0 0,0.1914 v 112.5 a 1.5361536,1.5361536 0 0 0 0,0.1914 1.5361536,1.5361536 0 0 0 0,0.1933 1.5361536,1.5361536 0 0 0 0,0.1914 v 119.4375 a 1.5361536,1.5361536 0 0 0 0,0.1915 1.5361536,1.5361536 0 0 0 0,0.1933 1.5361536,1.5361536 0 0 0 0,0.1914 v 126.6699 a 1.5361536,1.5361536 0 0 0 0,0.1914 1.5361536,1.5361536 0 0 0 0,0.1914 1.5361536,1.5361536 0 0 0 0,0.1915 v 134.5898 0.035 0.068 a 1.5361536,1.5361536 0 0 0 -0.002,0.1 1.5361536,1.5361536 0 0 0 0.002,0.078 1.5361536,1.5361536 0 0 0 0,0.014 1.5361536,1.5361536 0 0 0 -0.002,0.1 1.5361536,1.5361536 0 0 0 0.002,0.08 1.5361536,1.5361536 0 0 0 0,0.014 1.5361536,1.5361536 0 0 0 -0.002,0.1 1.5361536,1.5361536 0 0 0 0.002,0.092 1.5361536,1.5361536 0 0 0 0.1875,0.1914 1.5361536,1.5361536 0 0 0 -0.002,0.1 1.5361536,1.5361536 0 0 0 0.002,0.094 1.5361536,1.5361536 0 0 0 0.1875,0 1.5361536,1.5361536 0 0 0 -0.002,0.1 1.5361536,1.5361536 0 0 0 0.002,0.092 1.5361536,1.5361536 0 0 0 0.1875,0 1.5361536,1.5361536 0 0 0 0.1875,0.1914 1.5361536,1.5361536 0 0 0 0.1875,0.1914 1.5361536,1.5361536 0 0 0 0.1875,0 1.5361536,1.5361536 0 0 0 0.1875,0 1.5361536,1.5361536 0 0 0 0.1875,0 h 288 a 1.5361536,1.5361536 0 0 0 0.1875,0 1.5361536,1.5361536 0 0 0 0.1875,0 1.5361536,1.5361536 0 0 0 0.1875,0 1.5361536,1.5361536 0 0 0 0.18555,-0.1914 1.5361536,1.5361536 0 0 0 0.1875,0 1.5361536,1.5361536 0 0 0 0,-0.066 1.5361536,1.5361536 0 0 0 0.002,-0.086 1.5361536,1.5361536 0 0 0 0,-0.012 1.5361536,1.5361536 0 0 0 0,-0.027 1.5361536,1.5361536 0 0 0 0.18555,0 1.5361536,1.5361536 0 0 0 0,-0.068 1.5361536,1.5361536 0 0 0 0.002,-0.086 1.5361536,1.5361536 0 0 0 0,-0.01 1.5361536,1.5361536 0 0 0 0,-0.029 1.5361536,1.5361536 0 0 0 0.18555,-0.1914 1.5361536,1.5361536 0 0 0 0.1875,-0.1914 1.5361536,1.5361536 0 0 0 0,-0.068 1.5361536,1.5361536 0 0 0 0.002,-0.086 1.5361536,1.5361536 0 0 0 0,-0.01 1.5361536,1.5361536 0 0 0 -0.002,-0.076 1.5361536,1.5361536 0 0 0 0.002,-0.053 1.5361536,1.5361536 0 0 0 0,-0.01 1.5361536,1.5361536 0 0 0 0,-0.043 1.5361536,1.5361536 0 0 0 0,-0.01 1.5361536,1.5361536 0 0 0 -0.002,-0.078 1.5361536,1.5361536 0 0 0 0.002,-0.051 1.5361536,1.5361536 0 0 0 0,-0.012 1.5361536,1.5361536 0 0 0 0,-0.041 1.5361536,1.5361536 0 0 0 0,-0.01 1.5361536,1.5361536 0 0 0 -0.002,-0.078 1.5361536,1.5361536 0 0 0 0,-0.09 v -134.5546 a 1.5361536,1.5361536 0 0 0 0,-0.1915 1.5361536,1.5361536 0 0 0 0,-0.1914 1.5361536,1.5361536 0 0 0 0,-0.1914 v -126.6699 -0.1914 a 1.5361536,1.5361536 0 0 0 0,-0.1933 1.5361536,1.5361536 0 0 0 0,-0.1915 v -119.4375 -0.1914 a 1.5361536,1.5361536 0 0 0 0,-0.1933 1.5361536,1.5361536 0 0 0 0,-0.1914 v -112.5 -0.1914 a 1.5361536,1.5361536 0 0 0 0,-0.1914 1.5361536,1.5361536 0 0 0 0,-0.1934 1.5361536,1.5361536 0 0 0 0,-0.1914 v -106.3125 -0.1914 a 1.5361536,1.5361536 0 0 0 0,-0.1934 1.5361536,1.5361536 0 0 0 0,-0.1914 V 1284 v -0.1914 a 1.5361536,1.5361536 0 0 0 0,-0.1934 1.5361536,1.5361536 0 0 0 0,-0.1914 v -94.875 a 1.5361536,1.5361536 0 0 0 0,-0.1914 1.5361536,1.5361536 0 0 0 0,-0.1933 v -89.25 -0.1914 a 1.5361536,1.5361536 0 0 0 0,-0.1915 1.5361536,1.5361536 0 0 0 0,-0.1914 1.5361536,1.5361536 0 0 0 0,-0.1933 v -84.375 a 1.5361536,1.5361536 0 0 0 0,-0.1914 v -0.1914 -79.68753 a 1.5361536,1.5361536 0 0 0 0,-0.1875 1.5361536,1.5361536 0 0 0 0,-0.1875 V 858.1875 858 a 1.5361536,1.5361536 0 0 0 0,-0.1875 1.5361536,1.5361536 0 0 0 0,-0.1875 V 786.75 a 1.5361536,1.5361536 0 0 0 0,-0.1875 v -0.1875 -66.75 -0.1875 a 1.5361536,1.5361536 0 0 0 0,-0.18555 1.5361536,1.5361536 0 0 0 0,-0.1875 1.5361536,1.5361536 0 0 0 0,-0.1875 v -62.8125 -0.1875 a 1.5361536,1.5361536 0 0 0 0,-0.1875 1.5361536,1.5361536 0 0 0 0,-0.1875 1.5361536,1.5361536 0 0 0 0,-0.18554 v -59.25 -0.1875 a 1.5361536,1.5361536 0 0 0 0,-0.1875 1.5361536,1.5361536 0 0 0 0,-0.1875 1.5361536,1.5361536 0 0 0 0,-0.1875 v -55.875 -0.1875 a 1.5361536,1.5361536 0 0 0 0,-0.1875 1.5361536,1.5361536 0 0 0 0,-0.18555 1.5361536,1.5361536 0 0 0 0,-0.1875 V 485.625 a 1.5361536,1.5361536 0 0 0 0,-0.1875 1.5361536,1.5361536 0 0 0 0,-0.1875 v -49.6875 -0.1875 a 1.5361536,1.5361536 0 0 0 0,-0.18555 1.5361536,1.5361536 0 0 0 0,-0.1875 1.5361536,1.5361536 0 0 0 0,-0.1875 v -46.875 -0.1875 a 1.5361536,1.5361536 0 0 0 0,-0.1875 1.5361536,1.5361536 0 0 0 0,-0.1875 1.5361536,1.5361536 0 0 0 0,-0.18554 v -44.25 -0.1875 a 1.5361536,1.5361536 0 0 0 0,-0.1875 1.5361536,1.5361536 0 0 0 0,-0.1875 V 300.5625 300.375 a 1.5361536,1.5361536 0 0 0 0,-0.1875 1.5361536,1.5361536 0 0 0 0,-0.1875 v -39.55859 -0.1875 a 1.5361536,1.5361536 0 0 0 0,-0.1875 1.5361536,1.5361536 0 0 0 0,-0.1875 v -37.125 -0.18555 a 1.5361536,1.5361536 0 0 0 0,-0.1875 1.5361536,1.5361536 0 0 0 0,-0.1875 1.5361536,1.5361536 0 0 0 0,-0.1875 v -35.0625 -0.1875 a 1.5361536,1.5361536 0 0 0 0,-0.1875 1.5361536,1.5361536 0 0 0 0,-0.18555 V 153.1875 153 a 1.5361536,1.5361536 0 0 0 0,-0.1875 1.5361536,1.5361536 0 0 0 0,-0.1875 V 121.5 a 1.5361536,1.5361536 0 0 0 0,-0.1875 1.5361536,1.5361536 0 0 0 0,-0.1875 1.5361536,1.5361536 0 0 0 0,-0.1875 V 91.5 a 1.5361536,1.5361536 0 0 0 0,-0.1875 1.5361536,1.5361536 0 0 0 0,-0.1875 1.5361536,1.5361536 0 0 0 0,-0.1875 1.5361536,1.5361536 0 0 0 -0.1875,-0.1875 1.5361536,1.5361536 0 0 0 0,-0.1875 1.5361536,1.5361536 0 0 0 -0.1875,0 1.5361536,1.5361536 0 0 0 0,-0.1875 1.5361536,1.5361536 0 0 0 -0.1875,0 1.5361536,1.5361536 0 0 0 -0.1875,-0.1875 A 1.5361536,1.5361536 0 0 0 336.5625,90 1.5361536,1.5361536 0 0 0 336.375,90 1.5361536,1.5361536 0 0 0 336.1875,90 1.5361536,1.5361536 0 0 0 336,90 H 48 a 1.5361536,1.5361536 0 0 0 -0.1875,0 1.5361536,1.5361536 0 0 0 -0.154297,-0.002 z M 49.5,93 h 285 v 27.00195 h -285 z m 0,30 h 285 v 28.6875 h -285 z m 0,31.875 h 285 v 30.5625 h -285 z m 0,33.5625 h 285 v 32.625 h -285 z m 0,35.8125 h 285 v 34.6875 h -285 z m 0,37.6875 h 285 v 37.125 h -285 z m 0,40.125 h 285 v 39.375 h -285 z m 0,42.375 h 285 V 386.25 h -285 z m 0,45 h 285 v 44.4375 h -285 z m 0,47.625 h 285 v 47.25 h -285 z m 0,50.4375 h 285 v 50.25 h -285 z m 0,53.4375 h 285 v 53.4375 h -285 z m 0,56.625 h 285 v 56.8125 h -285 z m 0,60 h 285 v 60.375 h -285 z m 0,63.5625 h 285 v 64.3125 h -285 z m 0,67.3125 h 285 v 68.25 h -285 z m 0,71.4375 h 285 v 72.5625 h -285 z m 0,75.5625 h 285 V 1012.5 h -285 z m 0,80.0625 h 285 v 81.75 h -285 z m 0,84.9375 h 285 v 86.8125 h -285 z m 0,89.8125 h 285 v 92.25 h -285 z m 0,95.25 h 285 v 97.875 h -285 z m 0,100.875 h 285 v 103.875 h -285 z m 0,107.0625 h 285 V 1603.5 h -285 z m 0,113.25 h 285 V 1723.5 h -285 z m 0,120 h 285 v 124.125 h -285 z m 0,127.125 h 285 v 131.625 h -285 z"
       id="path2"
       inkscape:connector-curvature="0"
       transform="scale(0.01041667)" />
  </g>
</svg>
