<?xml version="1.0" encoding="UTF-8" standalone="no"?>
<!-- Created with Inkscape (http://www.inkscape.org/) -->
<svg xmlns:rdf="http://www.w3.org/1999/02/22-rdf-syntax-ns#" xmlns="http://www.w3.org/2000/svg" xmlns:cc="http://web.resource.org/cc/" xmlns:dc="http://purl.org/dc/elements/1.1/" xmlns:svg="http://www.w3.org/2000/svg" xmlns:inkscape="http://www.inkscape.org/namespaces/inkscape" xmlns:sodipodi="http://sodipodi.sourceforge.net/DTD/sodipodi-0.dtd" xmlns:ns1="http://sozi.baierouge.fr" xmlns:xlink="http://www.w3.org/1999/xlink" id="svg2814" version="1.0" viewBox="0 0 928 1110" inkscape:version="0.91 r13725">
  <path id="path2816" style="stroke:#ffff00;stroke-width:.09375;fill:#ffff00" d="m0 0h928v1110h-928v-1110m491.3 19.2c0.5 0.5 0.5 0.5 0 0m-41.9 11.4c-5.5 1.3-11.2 2.6-15.9 5.9-9.5 7.9-13.4 20.1-19.8 30.2-6 9.2-10.7 19.1-16.4 28.5-4.2 8.3-10.2 15.6-13.8 24.2-5 8.9-10.1 17.9-15.3 26.7-1.9 3.5-3.4 7.1-5.7 10.4-3.6 4.9-5.6 10.8-9 15.9-4 6.2-6.9 13-11 19.1-3.8 5.7-6.2 12.2-9.9 18-3.6 5.5-6.3 11.6-10 17-3.6 5.1-5.1 11.3-8.6 16.4-4.2 6-7 12.8-11.2 18.8-3.2 4.4-4.3 10-7.7 14.4-4.1 5.5-6.9 11.8-10.1 17.8-3.5 4.8-5.5 10.3-8.8 15.2-5.2 8.3-8.7 17.6-14.5 25.5-2.3 3.6-3.5 7.7-5.8 11.3-6.2 9.3-10.7 19.7-17 29-6.5 9.4-10 20.7-16.9 29.9-3.9 8.5-9.5 16.1-13.7 24.4-1.3 2.9-2.9 5.7-4.7 8.4-2.3 3.2-3.3 7.1-5.5 10.4-6.1 9.1-10.9 18.9-16.9 28-2 3.8-2.6 8.4-5.5 11.8-6.7 8.1-9.2 18.8-15.7 27.1-4.3 5.7-6.1 12.9-10.5 18.6-4.1 5.7-6.9 12.2-10.9 18-5.2 9.7-11.8 18.8-15.9 29.1-2.5 5-6.1 9.4-8.7 14.3-4.7 6-7.9 13-11.2 19.9-4.9 5-6.1 12.3-10.2 17.8-6.9 9.3-10.9 20.3-16.7 30.2-2.5 4.3-3.9 9.2-7.4 12.8-2.8 2.8-3.4 6.9-5.8 10-3.9 4.9-6.9 10.5-10.2 15.8-4.1 8.7-5.8 19.2-2.1 28.4 2.3 6.6 7.3 11.7 12.2 16.5 5.5 3.3 11.7 6.8 18.4 6.3 8.6 0.1 17.4-0.4 26 0.5 7.6-0.9 15.3-0.5 23-0.6 27.6 0 55.2 0.1 82.8-0.1 4.8-1.4 9.6 0.6 14.4-0.4 6.9-1 14-0.4 20.9 0.4 7.3 0.1 14.6-0.6 21.9-1 4.9-0.3 9.6 1.7 14.5 0.8 6.1-1.2 12.3-0.5 18.5-0.7 18.7 0.1 37.3-0.1 55.9 0 4-0.4 8-1.6 11.9-0.6 7.1 1.8 14.1-1.5 21.2-0.1 4.3 1 8.7 0 13-0.3h113c6-0.7 12-1.2 18-0.9 8.1-0.5 16.1 1.8 24.2 0.4 4.2-0.7 8.5-0.4 12.8-0.4 37 0 74-0.1 111-0.1 3.7 0 7.3-0.9 11-0.9 30 0 60-0.1 90-0.1 7-0.1 14.1 0.4 21-0.7 13.2-0.6 26.5 0.2 39.8-0.3 8.7-2.4 17.1-7.9 21.4-16.1 3-5.9 2.7-12.7 2.3-19.2-1.8-11.3-11.2-19.1-15.3-29.5-1.2-3-4.1-4.8-5.3-7.8-5.9-12.6-14.1-24-20.6-36.3-1.8-2.6-3.8-5.1-4.9-8.2-2.3-6.3-6.3-11.7-9.2-17.6-5.6-10.7-12.8-20.5-17.5-31.6-1.3-3.2-4.2-5.3-5.6-8.4-3.4-9-10-16.4-13.8-25.2-7.1-12.8-15.4-25-21.9-38.2-4.9-8.1-10.2-16-14.3-24.5-4-6.2-6.9-13-11.1-19-6.4-11.3-13.2-22.3-19.2-33.8-7.6-7.8-10.1-18.9-16.3-27.7-4.2-6.8-8.5-13.6-12.2-20.8-3.9-4.7-5.7-10.7-9.3-15.7-2.7-3.7-4.3-8.1-7.1-11.9-2.2-3.1-4.7-6-6.5-9.5-1.3-2.7-1.9-5.8-3.6-8.4-4.1-6.2-7.3-13.1-11.9-19-3.6-4.2-4.8-9.7-7.7-14.3-4.4-7-8.5-14.2-12.8-21.2-1.5-2.8-2.4-6-4.9-8.1-5.3-5.4-6.6-13.2-10.9-19.3-2.3-3.5-5.4-6.6-7.4-10.5-2.8-5.5-6.2-10.8-8.4-16.7-2.2-5.7-7-9.7-10-14.9-2.3-3.6-2.9-8-5.4-11.5-1.8-2.5-3.1-5.1-4.3-7.9-1.6-3.5-5.3-5.6-6.7-9.2-1.1-2.7-2-5.7-3.9-8-3.6-4.3-4.7-10.2-9-14-3.3-2.5-3-7.2-5.9-10-3.1-2.9-4-7.3-6.4-10.7-4.2-6.7-7.5-13.9-11.4-20.8-3.6-3.8-5.9-8.6-8.8-12.9-1.5-2.9-2.2-6.2-4.6-8.5-4.4-4.5-5.4-11-9.2-15.9-3.8-5.1-4.6-12.1-9.5-16.3-3.9-3.2-3.9-8.6-6.7-12.5-2.6-3.7-6.2-6.8-7.9-11.1-0.7-2.2-2.8-3.2-4.6-4.3-2.7-1.6-4.1-4.6-6.4-6.6-2.3-1.8-5.2-2.4-8.1-2.5-4.5-0.3-9.1-1.6-13.6-0.8m104.9 94.7c0.5 0.5 0.5 0.5 0 0m-211 18c0.5 0.5 0.5 0.5 0 0m224 4.9c0.5 0.5 0.5 0.5 0 0m10 17c0.5 0.5 0.5 0.5 0 0m36 61c0.5 0.6 0.5 0.6 0 0m4 7c0.5 0.5 0.5 0.5 0 0m55 91.1c0.5 0.5 0.5 0.5 0 0m45 79.9c0.5 0.5 0.5 0.5 0 0m186.8 66.2c-0.1 0.4-0.3 1.1-0.4 1.4 1.6 2.8 3.3-3 0.4-1.4m-134 26.9c-1.5 2.9 3.4 0.1 0 0m-681.8 97c0.5 0.5 0.5 0.5 0 0m-57 120c0.5 0.5 0.5 0.5 0 0m248 91.9c-4.5 5.2-4.7 12.6-3.4 19 4.1 6.3 10.8 11 18.3 12.3 4.4 0.8 8.8 2.1 13.2 3 4.1 0.7 7.6 3.8 9.4 7.5-0.1 3.1-1.2 6.2-3.1 8.7-6.4 4.3-15.2 4.7-21.6 0.3-3.6-2.3-4.3-6.7-5.9-10.3-4.3-0.7-8.6 0.7-12.9 0.9-1.1 9.1 5.8 16.5 13 21 3.4 1.5 7.1 2.3 10.8 2.9 5.3 0.9 10.5-1 15.7-2 4.9-0.9 9.2-3.7 13.2-6.5 3.5-2.5 4.9-6.8 4.6-10.9-0.2-4.4 1-9.3-1.7-13.1-1.8-2.7-3.9-5.3-6.4-7.4-3.4-2.6-7.8-3.1-11.8-4-4.5-1-8.8-3-13.3-3.7-2.4-0.6-5.1-0.6-6.8-2.5-2.6-2.4-2.8-6.8-1-9.7 2.6-2.3 6.1-3.4 9.4-4 3.9 0.8 7.8 2 11.2 4.1 1.8 1.9 2.7 4.5 4.1 6.8 4.5 0.1 9 0.1 13.4 0 0.7-6.3-2.2-13.4-8.2-16-5.5-2.5-11.3-5-17.5-4.3-8 0.5-17.3 1.2-22.7 7.9m300.2-7.6c-0.2 4.2 1 8.2 1 12.4-0.2 19.2 0 38.4-0.1 57.6h49.2c0.1-3.7 0.1-7.5 0-11.2-11.8-0.3-23.8 0.5-35.6-0.4-0.5-4.7-0.5-9.4-1-14 1.1-9 0.4-18 0.6-27 0.4-5.3-1.5-10.6 0-15.9-4.1-3-9.5-1.6-14.1-1.5m-420.9 1c-0.3 3.9-0.4 7.9 0 11.8 4.2 0.3 8.5 0.3 12.8 0 0.2-3 0.4-6.1 0.1-9.2 0-1.4-1.3-2.7-2.7-2.7-3.4-0.4-6.8-0.1-10.2 0.1m-72.3 6.3c0.2 13.6-0.3 27.2 0.2 40.8 1.4 7.9 0.3 15.9 1 23.8 1.8 0.1 3.7 0.2 5.5 0.2 11.3-0.6 22.7 0.8 34-0.8 14.4 0.1 24.2-19.6 14.9-30.8-3.1-1.7-7.7-2.7-8-6.9 3-4.5 7.3-8.6 7.8-14.3-0.5-4.2-2-8.2-3.7-12-2.8-3.6-7.4-5.9-12-5.5-12.2 0-24.5-0.2-36.8 0-3.1-0.2-3 3.4-2.9 5.5m618.5 11c-10.1 3.2-13 18.5-4.7 25.1 6.7 5.7 16.3 4.9 24.3 7.5 1.9 0.7 4.9 2.8 3.5 5.2-2.1 3.8-6.4 6.6-10.9 5.7-5.1-0.1-8.7-4-12.5-6.8-3.1-0.5-6.2 0.5-9.2 1 0.1 1.7-0.4 3.8 1 5.1 2.7 2.9 5.5 6 9.2 7.6 6.2 0.7 12.5 2 18.8 0.9 5-0.6 10.2-2.3 13.6-6.3 1.9-3.8 3.7-8.5 2-12.8-1.7-5-5.1-10-10.5-11.3-6.4-0.9-12.8-2.2-19-4.1-2.1-1.1-4.9-3.9-3.3-6.3 3.7-3 8.9-5 13.6-3.2 3.1 0.9 5.2 3.5 7.8 5.2 2.7 0.7 5.4-0.5 8-1.1 0.1-1.5 0.6-3.2-0.4-4.4-3.1-4.6-8.7-6.3-13.7-8.1-5.8-1.1-11.9-0.3-17.6 1.1m62.6-0.4c-4.4 1.4-9.1 3.1-12.1 6.9-3.9 4.2-4.2 10.3-4.8 15.8-0.5 9 2.3 18.9 9.6 24.6 6 4.4 13.8 5.8 21 4.2 7.6-0.9 14.4-6.3 16.6-13.6-4-1.3-8.1-2.2-12.3-2-2.1 2.2-3.7 5.5-6.9 6.3-3.5 1.5-7.2-0.3-10.4-1.7-3.5-1.5-4.7-5.6-5.5-8.9 1.8-1.6 3.7-3.5 6.4-3.4 9.5-0.2 19 0.2 28.6-0.1 0.4-1.8 1.2-3.6 0.7-5.4-1.7-6.3-3.3-13.4-8.7-17.8-6-4.9-14.7-7.6-22.2-4.9m62.3-0.7c-2.4 1.6-4.4 3.6-6.6 5.4-1.7-1.7-3.2-4-5.7-4.5-2.2-0.4-5.1-1.1-6.7 1-0.9 5.3 0.3 10.7-0.9 15.9-1.1 5.2 0.7 10.3 0.7 15.4 0 5.9-0.2 11.7-0.1 17.6 3.6 0.1 7.3 0.4 10.9-0.3 1.6-0.8 1.2-2.8 1.4-4.3 0.1-5.6-0.3-11.3 0.3-16.9 0.4-3.7-0.5-7.5 1-10.9 1.2-3.6 3.6-6.8 7.2-8.3 2.9-0.6 6 1.5 8.8 0.2 1.7-3.1 3-8.2-0.4-10.6-3.3-0.4-6.7-0.5-9.9 0.3m-177.1 1c-5 1.6-9.9 4.9-11.8 9.9-0.4 1.1-0.8 2.5-0.1 3.5 3 1.5 6.5 1.8 9.8 1.2 1.5-1.1 2.8-2.5 4.2-3.7 3-2.8 7.5-2.4 11.2-1.9 3.3 1.1 4.6 5 4.6 8.2-7.7 6-18.6 3.5-26.6 9-2.2 1.7-4.6 4-4.5 7.1-0.1 3.4-0.5 6.9 0.3 10.3 1.6 2.8 3.2 6 6 7.8 5.6 1 11.6 0.7 17.2-0.4 3.3-0.5 5.7-3.1 8.8-4.2 1 1.3 1.8 2.7 3.1 3.7 3.3 0.7 6.7 0.4 10.1 0.3-0.6-3.9-2.6-7.6-2.3-11.6 0.2-8.3-0.1-16.6 0-25 0.2-4.5-2.4-9-6.4-11.2-7.3-3.3-15.6-4.4-23.6-3m-303.4 6.4c-5.9 4.2-8.1 11.8-7.9 18.8 0.1 5.7-0.7 12 2.7 17 3 4.5 6.8 8.7 11.8 11 3.7 0.8 7.6 1 11.4 1.5 6-0.3 11.5-3.5 16.3-7.1 3.3-2.8 5.9-7.2 5-11.6-3.9-1-7.9-1.7-11.9-1.4-1.1 2.8-1.4 6.5-4.5 7.9-6.2 3.5-14.8 0.2-17.1-6.5-1-5.3-2.3-11-0.6-16.3 1-3.7 3.6-7 7-8.9 3.3-0.4 6.9-0.4 10 1 1.9 1.7 3.4 3.9 5.1 6 3.8 0.2 7.5-0.1 11.2-1.1 0.5-8.4-7.6-14.5-15.1-15.8-8-0.9-17.3-0.6-23.4 5.5m56.3-2.7c-4.1 2.2-5.9 6.8-7.3 11 2.8 0.4 5.6 1.1 8.4 1 2.8-1.5 4.9-4.2 7.9-5.2 3.5-1.4 7.6-0.7 10.9 1.3 2.3 1.4 3 4.2 3.9 6.6-4.1 3.6-9.7 4.1-14.8 4.6-4.6 1.2-9.3 2.8-13.2 5.5-4.4 4.4-6.8 12-3 17.5 1.9 3.8 5.5 6.6 9.8 7 7.2 2 15.6 0.5 20.8-5.2 1.5 1.3 2.6 3.1 4.5 3.9 2.7 0.6 5.4 0.2 8.1 0 0.2-2.3 0.2-4.6-0.2-6.9-1.1-5.5-0.7-11.1-1.6-16.6-0.7-5.4 3-11.4-0.5-16.3-2-2.9-2.9-6.9-6.3-8.5-2.9-1.8-6.4-1.9-9.6-2.4-6-0.9-12.5-0.3-17.8 2.7m64.3 2.7c-1.5-0.1-2.4-1.6-3.6-2.4-2.4-2.4-6-1.3-9-1.5-1 2.4-0.9 5.1-0.9 7.7 0.1 13.9 0.1 27.8 0 41.6 3.7 0.1 7.4 0.1 11.1 0.2-0.8-4.5 0.8-8.9-0.1-13.4-1.1-5.3 0.5-10.7 0.8-16 0.2-4.2 2-8.7 6-10.6 3.7-0.8 7.3 0.9 11 0.7 1.2-2.4 2.7-4.7 4.9-6.2 2.9 2.9 3.7 7 5.3 10.6 1.2 3.1 3.3 5.8 3.9 9.1 0.6 2.6 1.2 5.2 2.3 7.6 2.8 6 4.5 12.4 6.6 18.6 1.2 3.2-1.2 6.3-3.2 8.6-2.7 3.1-7 2.5-10.5 2.6-0.2 3.1-0.2 6.2 0 9.3 7.4 0.3 15.7 0.6 21.5-4.8 1.8-6.4 5.2-12.1 7.6-18.3 3.2-5.4 3.1-11.8 5.7-17.3 1.7-6.4 4.9-12.2 6.5-18.5 1.2-4.2 4-7.9 4.2-12.4-3.5-0.2-7.1-0.1-10.6 0-0.8 1.1-1.8 2.1-2.2 3.5-2.9 8.9-6.1 17.7-8.2 26.9-0.2 1.3-1.2 3.1-2.8 2.6-4.4-1.9-3.6-7.3-4.9-11-2.1-6.7-4.2-13.4-7-19.8-1-2.5-3.8-3.3-6.2-3.2-6.7 0.1-13.3 0-20-0.1-3.9-0.4-5.5 3.8-8.2 5.9m-283 7.4c-2.9 8.7-3.8 18.5-0.5 27.2 2.5 4 5.6 7.6 9.2 10.7 3.6 3.2 8.9 2.1 13.3 2 5 0.2 6.8-7.3 12.2-5.6 0.2 5 2.3 12-2.9 15.2-3.3 3-8.1 2.4-12.2 2.3-2.2 0-3.6-1.8-5.3-3-3.6-3.3-8.7-3.7-13.3-4.1-0.8 1.5-2.3 3.2-1.4 5 2 4.2 4.8 8.8 9.7 9.9 7.7 1.6 15.8 2 23.7 1 4-0.5 7.3-3.1 10.3-5.6 2.4-1.8 2.7-5 2.9-7.7 0.3-5 1.3-9.9 1.2-14.9 0-3.7-1.3-7.3-1.1-11 0.1-8.3 0-16.7 0.1-25.1-0.1-1.8 0.2-3.9-1.4-5.2-2-2.2-5.2-1.3-7.8-1.3-0.9 1.2-1.8 2.3-2.8 3.5-1.5-0.9-3-2-4.5-2.9-4.7-3.2-10.6-2.9-16-2.5-6 1.7-11 6.4-13.4 12.1m-27.5-10.3c0.3 16.7-0.3 33.5 0.2 50.2 3.7 0.2 7.6 0.8 11.2-0.7-0.1-15.8 0.1-31.6-0.1-47.4-3.1-2.9-7.5-2-11.3-2.1m481.3 96.2c-0.4 15.4-0.3 30.7-0.1 46 2.8 0.4 5.7 0.3 8.4-0.7 3.9-1.7 7.2 2.4 11.1 2 6 0.8 10.6-4.7 11.7-10 1.4-5.7 1.8-12.2-1-17.6-3.2-4.6-8.6-8.6-14.4-7.8-2.3 0.7-4.3 2-6.4 3.1-4.5-3.2-0.9-9.4-2.8-13.7-1.7-1.8-4.3-1.5-6.5-1.3m-530.2 1.8c-0.1 13.2 0.1 26.5 0 39.7-0.1 2.6 0.2 5.1 1 7.6 7.2 0.1 14.4 0 21.6 0 2.9 0.1 5-2 7.3-3.3 2.8-2 6.3-3.8 7.7-7.1 1.6-6.9 2.4-14.1 0.6-20.9-1.2-4.4-1.5-9.7-5.4-12.5-2.2-1.6-4.5-3.3-7.3-3.4-5.9-0.3-11.8 0.5-17.7-0.3-2.6-0.4-5.3-1-7.8 0.2m332-1c0 15.8 0.1 31.5 0 47.3 2.7 0.1 5.5 0.1 8.2 0 0.1-4.3-0.2-9 2.2-12.7 0.6-1.3 2-1.5 3.2-1.9 3.9 4.3 5.1 10.5 9.5 14.5 2.3 0.4 4.7 0 7.1-0.1-0.1-1.2 0.1-2.5-0.5-3.6-2.8-5.2-6.1-10.1-8.9-15.2-1.7-2.3 0.3-4.8 1.5-6.8 2-3.2 5.9-5.3 6.2-9.4-2.7 0-5.5-0.3-8.1 0.4-4.1 2.8-5.7 7.9-9.8 10.6-0.8-0.7-1.7-1.4-2.5-2.1-1.4-6.9 0-14.1-1.9-20.9-2-0.1-4.1-0.1-6.2-0.1m57.2 0.2c-0.6 11.8 0 23.7-0.3 35.5 0.1 3.6-0.5 7.3 0.9 10.7h6.4c0-8.5 0.2-17-0.2-25.5-1-6.9 1.8-14-1.1-20.6-1.9-0.4-3.8-0.3-5.7-0.1m-157.2 0.7c-0.1 15.2 0 30.4-0.1 45.5 2.5 0.1 5 0.1 7.4 0-1.6-5.6 0.3-11.2-0.1-16.8-0.3-7.6 0.3-15.2 0-22.8 0.1-2.4-1.6-4.1-3-5.7-1.4-0.1-2.8-0.1-4.2-0.2m-41.5 7.5c-1 3.5-3.4 7-2.6 10.8 0.8 1 1.8 1.8 2.6 2.8 2.3 6.9 0.8 14.2 1.7 21.3 1.9 5 7.8 4.3 12.2 4 2.8-3.9-2.5-6.5-5.1-8.7-0.1-5.2-0.4-10.5 0.1-15.8 0.8-3.1 4.3-3.2 6.9-3.8-0.1-1.9-0.4-3.8-1.1-5.7-1.6-0.2-3.2-0.4-4.7-0.6-0.5-3.6-0.4-7.3-0.4-10.9-3.8 0.8-8.8 2.1-9.6 6.6m258.8-4.2c-0.2 2.1-0.4 4.1-0.7 6.2-1.8 1.2-4.2 2.4-4.4 4.9-1 3.2 3.5 4.1 4.2 6.9 1.1 4 0.5 8.3 0.6 12.5 0.1 3.5-0.9 7.8 2.4 10.2 3 4.1 8.5 2.1 12.6 1.1 0.2-1.9 0.2-3.7 0.1-5.6-2.3-0.4-4.9-0.1-6.9-1.3-2.3-3.3 0-7.4-0.4-11.1-0.3-2.8-1.2-6.6 1.7-8.4 1.3-1.3 3.8-1.9 3.7-4 0.6-3.3-3.9-3.2-5.2-5.4-0.7-2-1.1-4.2-1.7-6.2-2 0-4 0.1-6 0.2m124.3 10.5c-4.9 4.2-5 11-4.6 16.9 0.1 4.3 2.9 8 5.7 11 3 3.3 7.7 3.6 11.9 3.7 5.3 0.1 11.6-3.4 11.9-9.3-1.8-1-3.8-1.6-5.8-1.9-1.9 1.8-3.7 4-6.4 4.6-2.6 0.9-5.4-0.7-7.2-2.6-1.6-1.8-0.8-4.4-0.7-6.5 7.6-0.8 15.2 0.1 22.7-0.5 0.2-2.7-0.1-5.4-1.3-7.8-1.7-3.6-3.3-7.6-6.8-9.9-6.1-3.1-14.6-3.2-19.4 2.3m37.9-2c-2.6 1.2-2.8 4.2-2.7 6.7 3.7 0.5 7.2-0.6 10.4-2.3 2.6-1.5 5.8-0.6 8.2 1 2 2.3-0.8 4.9-3.1 5.5-5.8 1.8-12.5 2.2-17 6.8-0.5 2.1-0.5 4.2-0.4 6.3-0.3 3.9 3.2 6.6 6.2 8.4 5.3 1.3 10.5-0.6 15.3-2.6 1.9 1.8 4 3.5 6.8 2.9 0.9-2.3 1.2-4.9 0.6-7.3-1.5-6.9 0.4-14-1-20.9-1.1-3.2-4.3-5.2-7.4-6.1-5.2-1.7-11-0.7-15.9 1.6m44.2 0.3c-3-1.5-6.2-2.5-9.5-1.8-0.5 11.1-0.1 22.1-0.3 33.2 2.7 0.1 5.4 0.1 8.1-0.3 1-7.1-1-14.3 0.4-21.3 0.9-4.7 6.4-8.3 10.9-5.9 1.8 3.3 1.7 7.2 1.7 10.8-0.1 5.6-0.1 11.2 0 16.7 2.5 1.3 6.4 1.6 8.1-1.1 0.8-8.6-1.8-18.1 3.3-25.9 2.8-2.7 9.2-1.1 9.5 3.3 0.5 8.2-0.4 16.4 0.3 24.5 2.3 0.4 4.6-0.4 6.8-1.2 0.7-8.1 0.1-16.2 0.3-24.3 0.4-5.9-5.6-9.7-11-9.6-3.5-0.8-6.2 2-8.8 3.9-4.4-1.7-8.7-4.7-13.6-3.9-2.2 0.7-4.2 1.9-6.2 2.9m-238.3 2.9c-3-0.4-5.7-2.5-8.7-3.2-1.1 2.5-0.8 5.3-0.8 8 0.1 8.2-0.1 16.5 0.1 24.7 2 0.6 4.1 1 6.2 1.1-0.1-3.2 0-6.4 0.3-9.5 0.5-3.3-0.7-6.7 0.2-10 0.7-3.2 1.7-6.9 5.1-8.2 2.1-1 5.2-2.7 7-0.4 5.4 8.4 2.4 18.7 3.2 28.1 2.4-0.3 6.2 0.8 7.2-2.2 0.1-3.5-1.3-6.9-0.6-10.4 0.6-6.3 2.9-13.4-1.2-19-4.6-5.6-13.9-4.6-18 1m-155.4-3.6c-3.1 0.8-6.3 1.8-8.7 4.1-4.3 5.3-6.6 12.5-4.5 19.2 0.7 5.5 5.2 9.8 10.2 11.5 5.1 0.5 10.8 1.1 15.3-1.8 3-1.8 6.1-4 7.5-7.3 3.6-8 0.3-17.8-6.2-23.2-4-2.5-9-3.3-13.6-2.5m41 0c-6.3 0.4-11.6 5.6-13 11.6-1.6 5.7-2 12.6 2.1 17.4 5.6 6.9 16.3 7.9 23.9 3.8 6.6-3.4 9.1-11.8 7.9-18.8-1.7-9.3-11.6-16.2-20.9-14m177 0c-6.8 0.7-11.9 7.7-11.1 14.4-0.7 6.2 1 12.7 5.7 17 6.4 4.2 15.1 4.6 21.6 0.6 2.6-2.6 4.4-5.8 5.7-9.1 1.4-7.4 0.1-16.7-7.1-20.6-4.3-3-9.8-3-14.8-2.3m-419 1c-6.5 0.6-11.7 5.9-13.8 11.8-0.4 4.5-0.8 9.2 0.5 13.6 2.9 4.7 7.9 8.5 13.4 9.4 6.1 1.2 12.3-1.3 17-4.9 4.7-8 3.5-18.7-1.9-26.1-3.9-3.9-10-4.6-15.2-3.8m57.6 2c-3.1-0.9-6.3-1.7-9.6-1.3-0.1 8.2 0 16.5-0.1 24.7 0.1 2.9-0.3 6 1 8.8 2-0.1 4.1-0.2 6.2-0.3 0.4-5.8 0-11.7 0.1-17.5-0.1-3.3 0.7-7 3.7-8.7 2.4-1.3 5.7-2.8 8.1-0.7 3 4.4 1.6 10 2.3 14.9 0.8 4.4 0.7 8.8 0.7 13.2 2.7 0 5.4-0.1 8-0.3 0.3-8.1 0.2-16.2 0.1-24.3 0.1-4.3-2.4-8.3-6-10.5-5-1.1-9.9 0.1-14.5 2m40.6-1.9c-5.5 1.8-9.9 6.5-11.8 11.9-0.3 3.1 0.6 6.3 0.5 9.4-0.2 4.4 2.6 8.3 6 10.7 5.9 3.4 13.5 3.9 19.8 1.2 4.4-2.9 6.6-8.3 8.5-13.1-0.3-6.1-0.8-13.3-6.1-17.3-4.3-4.7-11.3-3.2-16.9-2.8m-15.1 63.5c-0.2 14.8 0 29.6-0.1 44.4 2.6 1 5.3 1.3 8 0.9 0.7-8.1-0.7-16.7 2.7-24.3 1.8-3.5 7-5.3 9.9-2.1 5.2 7.5 2.5 17 3.5 25.5 2.1-0.2 5.8 1.2 6.4-1.7 1.8-6.5 0.2-13.3-0.3-19.9-0.4-4.8-1.8-11.1-7.5-12-4.6-2.3-8.6 2.6-13.3 1.3-0.4-5-0.1-10-1.3-14.9-2.7 0.1-7.7-1.1-8 2.8m220.8-2.9c-1.1 2.3-1 4.7-0.8 7.1 3 0.3 6.1 0.3 9.2 0.2 0-2.5 0-5-1-7.2-2.5-0.1-4.9-0.1-7.4-0.1m60 0c-0.1 2.4 0 4.8 0.2 7.2 2.4 0.2 4.8 0.2 7.2 0.2-0.2-2.5-0.7-4.9-1.2-7.3-2.1-0.1-4.2-0.1-6.2-0.1m-321.9 1c-0.1 2.5-0.1 4.9 0 7.4 2.7 0.1 5.4 0 8.1-0.3 0.2-2.3 0.2-4.6 0-6.8-2.7-0.3-5.4-0.4-8.1-0.3m20.3 5.4c-1.2 1.9-1.2 4.4-2.6 6.3-0.7 1.3-2 2.4-1.9 4-0.4 2.8 2.4 4.3 4 6.1 0.9 7.1-1.1 14.6 1.2 21.5 1.3 4.5 6.8 4.2 10.5 4.1 2.1 0.2 4.2-1.4 3.7-3.6 0-3.9-6.3-2.4-6.6-6.3-1.1-4.8-0.9-9.9-0.3-14.8-0.1-3.1 3.5-3.1 5.7-3.9 0.2-1.5 0.3-3 0.3-4.5-2-0.9-4-1.6-5.7-2.8-0.6-2.8-0.4-5.7-0.4-8.6-2.8 0.2-6 0.1-7.9 2.5m495.3 11.3c-2 2.5-1.6 5.9-1.7 9 0.1 4-0.5 8.4 1.7 12.1 1.7 2.7 3.6 5.9 7 6.7 5.8 1.5 12.6 1.3 17.5-2.3 2.1-1.4 2.2-3.9 2.3-6.1-2.1-0.5-4.7-2-6.7-0.3-2.1 1.6-4.3 3.5-7.1 3.3-3.5-0.7-6.3-3.8-6.6-7.4 1.4-1.1 2.8-2.2 4.6-2.2 5.9-0.5 11.7 0.2 17.5-0.4 0.4-4.5 0-9.4-2.8-13.1-3.7-4.6-9.9-6.7-15.6-5.9-4.3 0-7.6 3.3-10.1 6.6m-165.1-2.9c-3.1-1-6.2-2-9.5-1.8-1.4 4.4-0.9 9.1-1 13.7 0.1 6.8-0.2 13.6 0.2 20.4 2.9 0.3 5.9 0.3 8.8 0 0.5-6.8-0.1-13.6 0.2-20.4 0-3.6 2.4-7.7 6.4-7.5 2.4-0.1 6.3-0.5 7.1 2.7 1.2 8.1-1.1 16.6 1.2 24.5 2 0.1 4.1 0 6.1-0.3 0.2-5.8 0.6-11.7-0.6-17.4-0.5-2.3 0.2-4.5 0.3-6.8-0.7-2.9-2.1-5.6-3.1-8.4-5.3-1.8-11.4-2.4-16.1 1.3m37.7-2.4c-3.2 1.9-6 4.7-7.8 8-0.8 4-0.4 8.2-0.5 12.3-0.3 5.6 3.5 10.8 8.4 13.2 5.3 1.8 10.3-0.9 15.3-2.2 0.4 2.3 0.5 4.7 0.3 7-2.7 2.4-6.9 6.1-10.5 3.3-3.7-2.3-8.4-5.7-12.7-3.1 0.5 2.4 0.6 5.4 3 6.7 7.4 4.1 16.7 3.3 24.5 0.6 3.2-4.4 3.2-10.3 3.1-15.5-0.4-9.5 0.3-19.1-0.2-28.6-4.1-1-8.2 2.8-12 0.2-3.3-1.8-7.2-3-10.9-1.9m54.4 4.3c-5.6 5.7-3.4 14-2.6 21 0 3.8 3.1 6.6 6 8.5 6.8 2.8 14.2 0.4 20.2-2.9 1.4-1.5 1.7-3.6 2.3-5.5-1.2-0.5-2.6-1-3.9-0.9-4.2-0.5-6.9 3.9-10.9 4-2.8-0.8-5.2-2.9-5.8-5.7-0.8-1.5 0-3.5 1.8-3.7 6.8-1.1 13.9 1.1 20.5-1.1 0-3.8 0.7-8.2-1.9-11.5-2.3-3.2-5.4-6.9-9.7-6.8-5.6-0.3-12.4-0.8-16 4.6m57.9-4.1c-3.5 6-4.8 13-6.3 19.7-0.2 1.6-2.3 1.5-3.6 1.9-4.5-5.6-4.9-13.2-8.1-19.5-1.1-2.7-4.4-1.5-6.6-1.7-0.5 3.8 0.6 7.5 2.7 10.8 3.3 7.7 7.4 15.3 8.2 23.8-0.9 4.9-6.2 5.6-10 7.3 0.3 1.5 0.7 2.9 1.1 4.4 4 0 8.3 0.7 11.9-1.5 3-1.8 3.9-5.5 5.3-8.5 4.8-11.2 7.7-23 12.8-34 0.6-1.1-0.3-2.3-0.6-3.3-2.2 0.2-4.8-0.6-6.8 0.6m-386.2 1c-4 1.5-8.2 0.2-12.2 0.4-1.7 5.6 0.1 11.3-0.9 17 0.2 5.4 1.1 10.9 0.7 16.4 2.2 0 4.3 0 6.5-0.1 1.6-5.2 0.7-10.7 0.5-16-0.4-3.4 0.8-6.9 3-9.4 2.9-0.9 6-0.5 9-0.9 0.9-2.5 1.9-5.4 0.4-7.9-2.4-0.1-4.8-0.3-7 0.5m17 1.9c-5.6 4.1-6.4 11.7-6.4 18.2 0.6 6 4.1 12.3 10.2 14.3 4.4 1.3 9.3 1.6 13.6-0.4 2.8-2.1 6-4.7 5.7-8.5-2.1-1-4.6-1.6-6.8-0.4-2 1.4-3.5 4-6.3 3.7-4.1-0.1-7.9-4.6-6.9-8.7 7-0.5 14-0.5 20.9-1.5 0.4-5.7-0.7-12-5.1-16.1-5.5-3.3-13.3-4.5-18.9-0.6m42.4 0.9c-2.7-1.6-5.5-2.9-8.7-2.5-0.4 6.8 0.4 13.7-0.7 20.4-0.6 4.3-0.4 8.6 1.1 12.7 1.8 0.3 3.7 0.4 5.5 0.2 2.1-7.5 0.9-15.3 1.2-23 1.4-3.2 5.3-4.2 8.5-4.7 3 0.9 5.1 4 5.3 7.2 0.3 6.8-0.5 13.7 0.2 20.5 2.1 0.2 4.2 0.3 6.2 0.3 1.5-3.3 0.9-7 0.6-10.4-0.7-5 0.5-10.1 2.3-14.7 2.1-2.6 6.7-4.5 9.3-1.6 2.1 2.1 1.4 5.3 1.5 7.9-0.4 6 0.9 12.3-0.9 18.2 2.7 0.8 5.6 0.8 8.2-0.5-0.1-7.9 0-15.8 0-23.7 0-3.1-1.5-6-3.5-8.2-1.9-1.8-4.8-1.4-7.2-1.5-3.8-0.4-6.6 2.4-9.8 3.9-2.8-1.8-5.7-4.2-9.3-3.9-3.7-0.5-6.3 3.1-9.8 3.4m56.4-3.1c-2.6 2.2-6.8 4.7-6 8.6 1.8 0.5 3.6 1 5.4 1.4 3.2-3 7.4-5.4 11.9-3.6 3.3 1.7 1.3 6.8-2 7-5.5 1-11.9 1.4-15.9 5.8-1.1 3.4-0.7 7.2-0.4 10.7 2.1 3.7 6.4 5.5 10.5 5.2 3.3 0.2 6.1-1.7 9.2-2.4 3.2 0.4 6.6 2.7 9.6 0.5-1.9-9-1.1-18.3-1.3-27.4-1.4-2.7-4.2-4.6-6.9-5.8-4.7-0.5-9.4-0.5-14.1 0m50 4.5c-0.1 9.9-0.1 19.8-0.1 29.7 2.7-0.1 5.4-0.4 7.9-1.5 0.5-5.4 0.3-10.9 0-16.3-0.2-4.3 1.6-9.4 6-10.9 3.5-1.7 7.3 0.9 8.8 4 0.5 4.3 0.1 8.7 0.9 13 0.6 3.5-1.1 7.2 0.3 10.6 2-0.2 4.7 0.6 6-1.4 0.7-2.4 0.4-4.9 0.3-7.3-0.4-6.4 0.5-13-1.6-19.2-1.4-2.1-3.4-3.8-5.7-5.1-4.5-1.4-9.2 0.1-13.1 2.5-2.1-1.4-4.2-3.4-6.9-2.9-2.3 0.1-2.8 2.9-2.8 4.8m-335-3.6c0.1 5.5 1.3 10.8 3.3 15.8 2.4 5.9 3.9 12.1 6 18 2.8 0.2 5.7 0.9 8.3-0.2 3-5.5 3.4-12 5.8-17.7l2.4 1.2c2.3 4.8 2 10.6 5 15.1 2 3 5.9 1.9 8.8 1.5 2.1-6.1 3.9-12.2 5.6-18.4 1.5-4.7 3.2-9.5 3.1-14.5-2.4-0.1-4.8 0-7.2 0.1-1.5 5-2 10.3-3.8 15.3-0.4 1.4-1.5 2.3-2.8 3-3-4.3-4.1-9.5-4.5-14.6 0.1-2-1.2-3.8-3-4.6-2.7-0.5-5.9-0.1-7.6 2.3-1.9 5.8-0.4 12.8-4.9 17.6-0.4-0.1-1.2-0.5-1.6-0.6-1.2-5.9-3.5-11.5-5-17.3-1.1-3.3-5.3-1.9-7.9-2m54.9 0.8v33.3c3.1 0.1 6.1 0.1 9.2 0-0.1-8.5 0.1-17-0.1-25.5-0.3-2.8-0.3-6.1-2.3-8.3-2.2-1-4.7-0.3-6.8 0.5m262-1.1c0 10.8-0.2 21.6 0.1 32.3 2.3 0.3 4.7 0.3 7 0 0.2-10.6 0.8-21.4-1.2-32-2-0.2-3.9-0.3-5.9-0.3m60.2 0.3c-0.7 7.1 0 14.3-0.2 21.5 0.1 3.6-0.7 7.4 0.9 10.8 2.1-0.2 5.5 0.5 6.2-2.2 0.5-6.2-0.1-12.4 0.2-18.6-0.3-3.3 0.6-6.8-0.9-9.9-1-2.6-4.1-1.7-6.2-1.6m347.7 6.8c0.5 0.5 0.5 0.5 0 0m1 8.2c-1.2 0.9 0.4 2.8 1.5 2 1.1-0.9-0.4-2.9-1.5-2m0 18.6c0.1 3.4 2.9-1.6 0 0z"/>
  <path id="path2818" style="stroke:#000000;stroke-width:.09375;fill:#000000" d="m449.4 30.6c4.5-0.8 9.1 0.5 13.6 0.8 2.9 0.1 5.8 0.7 8.1 2.5 2.3 2 3.7 5 6.4 6.6 1.8 1.1 3.9 2.1 4.6 4.3 1.7 4.3 5.3 7.4 7.9 11.1 2.8 3.9 2.8 9.3 6.7 12.5 4.9 4.2 5.7 11.2 9.5 16.3 3.8 4.9 4.8 11.4 9.2 15.9 2.4 2.3 3.1 5.6 4.6 8.5 2.9 4.3 5.2 9.1 8.8 12.9 3.9 6.9 7.2 14.1 11.4 20.8 53.04 92.19 94.16 157.22 130.54 220.23 174.06 301.51 178.16 311.87 178.16 311.87s4.1 4.8 5.3 7.8c4.1 10.4 13.5 18.2 15.3 29.5 0.4 6.5 0.7 13.3-2.3 19.2-4.3 8.2-12.7 13.7-21.4 16.1-13.3 0.5-26.6-0.3-39.8 0.3-6.9 1.1-14 0.6-21 0.7-218.67 0.02-436.71 4.12-655 4-7.7 0.1-15.4-0.3-23 0.6-8.6-0.9-17.4-0.4-26-0.5-6.7 0.5-12.9-3-18.4-6.3-4.9-4.8-9.9-9.9-12.2-16.5-3.7-9.2-2-19.7 2.1-28.4 358.51-631.3 3.628-2.34 361.2-634.7 6.4-10.1 10.3-22.3 19.8-30.2 4.7-3.3 10.4-4.6 15.9-5.9m-6.1 90.8c-106.83 189.75-216.63 377.97-322.6 568.4-1.7 3.3-5.1 6.3-3.9 10.4 4.4-0.3 8.8-0.6 13.2 0.2 659.38-5.09 0.69-2.47 662.1-3.8 3.5-0.3 7.2 0.3 10.7-0.6 2.5-1 2.5-4.7 0.6-6.4-3.8-3.9-4.8-9.5-8.7-13.3-2.7-2.7-3.1-6.7-5.3-9.6-107.69-175.64-204.75-356.59-312.9-532.2-3.6-5-6.2-10.6-8.8-16.1-1.1-2.7-4.2-3.9-5.2-6.7-1.7-3.8-3.8-7.3-6.5-10.3-5.8 5.5-8.5 13.3-12.7 20z"/>
  <path id="path2820" style="stroke:#ffff00;stroke-width:.09375;fill:#ffff00" d="m443.3 121.4c4.2-6.7 6.9-14.5 12.7-20 2.7 3 4.8 6.5 6.5 10.3 1 2.8 4.1 4 5.2 6.7 2.6 5.5 5.2 11.1 8.8 16.1 6.2 9.1 10.9 19.1 16.7 28.4 3.3 4.5 4.8 10.1 8.6 14.3 4.1 7 8 14.1 11.9 21.3 4.5 6.8 8.7 13.9 13.1 20.7 3.9 6.2 6.2 13.4 10.9 19.1 8.6 12.4 13.8 26.9 23.2 38.9 2.7 4.4 3.7 9.7 7.4 13.6 5.7 9 10.8 18.5 16.4 27.6 3 6.1 7.4 11.4 10.5 17.5 2.2 4.3 5.9 7.7 8 12.1 5.7 13.7 14.3 25.8 21.3 38.8 5.6 7.9 9.2 16.9 15 24.7 5.5 9 11.3 17.8 15.8 27.3 4.9 7.3 8.9 15.1 13.1 22.8 3.2 4.6 5.1 10 8.5 14.5 1.8 2.3 3.3 5 4.5 7.7 3.3 7.9 9.5 14.3 12.4 22.5 1.3 4.3 5 7.2 7 11.1 6.1 10.7 11.8 21.7 19.3 31.5 7.1 12.2 13.7 24.8 21.5 36.6 2.6 3.9 4.1 8.4 6.6 12.4 2.6 4.3 6 8.2 8.2 12.8 2.2 5.2 5.7 9.8 8.2 14.8 3.5 4.9 6.9 9.9 9.7 15.2 2.5 4.9 4 10.4 7.2 14.9 2.7 3.7 5.2 7.4 7.9 11.1 2.2 2.9 2.6 6.9 5.3 9.6 3.9 3.8 4.9 9.4 8.7 13.3 1.9 1.7 1.9 5.4-0.6 6.4-3.5 0.9-7.2 0.3-10.7 0.6-12.7 1.5-25.4 0.5-38.1 0.8-5.8 0.2-11.6-0.5-17.3 0.5-4.2 1-8.3-1.1-12.5-0.5-11.3 1.7-22.8 0.8-34.2 1-2.9 0.3-5.3-2-8.1-1.4-5.6 0.9-11.2 0-16.7 0.8-7 1.1-14.1 0.3-21.2 0.7-11.6 0.1-23.3-0.4-35 0-7 0.7-14 0.8-21-0.1-28.3-0.1-56.7 0-85 0-9.6 0.1-19.3-0.3-28.8 0.8-4.7-0.8-9.4-1.2-14.2-0.7-4.9 0.7-10-0.2-15 0.7-8.3 0.5-16.7 0-25 0.2-5.7 0.2-11.3-1.4-17-1-12 0.4-24-0.7-36 0.9-9.7 0-19.3 0.5-29 0-8.7 1.1-17.3-0.3-26 0.1-7-0.6-13.9 2-20.9 0.6-2.9-0.6-5.7 0.2-8.6 0.4-50.8-0.1-101.7 0-152.5 0-4.4-0.8-8.8-0.5-13.2-0.2-1.2-4.1 2.2-7.1 3.9-10.4 2.6-5.3 6.4-10.1 8.2-15.8 3.4-6.8 7-13.5 11.2-19.8 3.2-5 4.5-11 8.8-15.2 4.2-6.5 8.9-12.8 12-20 2.1-4.1 5.5-7.5 7.2-11.8 2.3-5.5 6-10.2 8.3-15.7 1.2-2.7 2.8-5.2 4.6-7.5 2.5-3.1 2.8-7.4 5.4-10.5 2.5-3 5-6 6.4-9.7 2.8-7.1 7.9-12.9 11.1-19.8 7-12.6 13.9-25.3 21.3-37.7 7.3-13.8 16.3-26.8 23-41.1 1.9-3.6 4.1-7.1 6.4-10.5 4.6-7 7.8-14.8 12.2-21.8 4.3-5.8 6.2-12.9 10.4-18.7 3.5-4.8 5.6-10.3 8.7-15.3 5-8.3 9.3-17.1 14.7-25.3 5.6-11.1 12-21.9 18.3-32.7 2-4.1 4.1-8.3 6.8-12.1 3.2-4.7 5-10.2 8-14.9 1.9-3.1 4.4-5.8 5.8-9.1 3.9-8.9 9.3-16.9 13.7-25.4 6.1-12.6 14.7-23.7 20.8-36.3 9.8-16.1 18.3-32.9 27.9-49.2 7.9-11.7 13.3-25 21-36.9 2.4-6.5 7.5-11.5 9.9-18 3.4-5.9 6.5-12 10.5-17.6m-18.8 160.2c-0.3 12.1-0.1 24.3-0.1 36.4-0.1 3.8 2.1 9.6-2.4 11.6-6.9-6.6-6.6-17.5-13.2-24.3-2.3 0.3-4.5 1.1-6.5 2.1-0.1 2.5 0.1 5.1 1 7.4 2.5 6.6 6.1 12.7 8.6 19.3-0.3 1.7-2.2 2.8-3.8 2.2-3.7-2.1-5.9-5.8-8.4-9-1.7-2.3-4.4-3.6-6.4-5.5-1.7-1.7-3.2-3.5-4.9-5.1-5.1-4.2-8.5-10.4-14.6-13.3-2.9 0.5-5 3.3-6.5 5.8 0.8 3.4 4.7 5 6.7 7.8 2.3 3.4 5.7 5.7 8.8 8.1 3 4 6.8 7.3 10.2 10.9 2.6 2.5 6.2 4.3 7.6 7.9l-2.6 2.6c-4.9-2-9.9-4-14.1-7.2-3.6-1.8-7.2-4-11.3-4-1.4 3.5-2.9 7-4.3 10.5 3.2 1 6.5 1.7 9.4 3.4 4.8 2.5 10.1 4 15.2 5.9 2.4 0.5 1.2 3.3 1.2 4.9-15.2 1.2-30.5-0.7-45.7 1.3-0.2 3.1-0.2 6.1 0.1 9.2 14 0.1 28.1-0.1 42.1 0.1 1.3-0.1 2.9 0.7 2.9 2.3-1.1 1.7-3 2.3-4.7 3.1-4.7 1.9-9.3 4-13.9 6.1-1.6 0.8-3.4 1.6-4.4 3.2-0.1 2.6 1.2 5.7 4 6.2 3.2 0.7 6.1-1.3 9-2.1 3.8-1.1 7.3-2.6 10.8-4.4 1.7-1.1 3.5 0.2 5 1.1 0.9 4.1-3.5 5.9-5.8 8.4-6.4 6.3-13.1 12.3-18.8 19.2-1.7 2.1-4.3 3.5-5.6 6 2.1 2.6 4.4 5 7.1 7.1 3.5-1.8 4.7-5.7 6.8-8.8 1.7-2.9 4.7-4.8 7.5-6.5 6.4-3.9 10.6-10.4 16.5-15 0.8 0.1 2.5 0.2 3.3 0.3 0.4 4.8-2.8 8.7-4.3 13-1.4 4.4-4.4 8.7-3.4 13.4 2.7 0.8 5.8 2.3 8.5 0.9 2.2-6 5.7-11.6 6.9-17.9 0.5-2.9 2.8-6.3 6.1-5.5 0.7 16.3-0.1 32.5 0.5 48.8 3.6 0.2 7.3 0.4 10.7-1 2-6.1-0.2-12.3 0.2-18.5 0.2-9-0.2-18 0.1-27-0.2-2.1 1.4-3.5 3.4-3.6 2.3 3.8 3.4 8.2 5.6 12.1 2.4 4.4 3.9 9.1 5.3 13.9 3.3 0.6 6.5-0.6 9.2-2.3 1.4-2.9 0-6.2-1.5-8.7-3.7-5.9-6-12.4-8.9-18.5 0.7-0.9 1.5-1.7 2.2-2.5 8.2 5.6 13.8 13.9 21.1 20.5 7.3 6.1 13.1 13.8 21.2 18.9 13.4 14.5 27.2 28.9 41.3 42.7 3.3 3.2 7.8 5 10.3 8.9 1.5 2.2 0.4 5.6-2.1 6.4-2.4 0.8-4.9 0.8-7.3 0.8-3.8 0.4-6.7-3-10.5-3.1-4.6-0.3-8.9-1.9-13.3-3.1-4.3-1.2-8.1-3.9-12.3-5.3-6.4-1.4-12.4-4-18.7-5.7-6.2-2.8-13.2-2.1-19.8-3.7-3.9-0.1-7.6 1.3-11.4 2-4.4 0.7-7.4 4.2-10.5 7.2-2.3 2.5-5 5.3-4.6 9-0.3 2.6 2.3 4.3 4.7 3.8 4.1 0.3 6.7-3.4 10.1-5 3.2-0.1 6.7 1.8 9.7 0 2.5-0.9 5.2-3.1 7.9-1.8 4.2 2.9 7.4 7.1 11.9 9.4 5.6 2.7 10.4 7 16.5 8.4 6.4 1.6 12.8 3.5 18.8 6.3 2 0.8 3.1 2.8 2.4 4.9-2.1 4-6.7 5.8-10.3 8.2-6.5 3.6-13.8 7.9-21.5 5.6-8.3-0.2-16.5-1.2-24.7-2.1-5.4 0-10.4-2.3-15.8-2.2-4.6 0-9.3-0.2-13.9 0.1-5.8 0.7-10.5 4.7-15.8 7-4.8 1.8-7.6 6.3-11.7 9.1-4.9 3.4-8.6 8.1-13.1 12-7.1 6.2-12.9 13.8-20.8 19.1-5.8 4-9.5 10.2-13.8 15.6-2-0.1-4.6 0.8-6.1-1-3.1-4.2-4.1-10.5-9.3-12.8-2.1-0.2-5.4-1-6.3 1.6-4 8.9-4 19.6 0.6 28.3 1.4 2.5 4.1 4 5.3 6.7-0.1 3.2-0.9 6.9 1.1 9.7 2.4 2.5 5.9 4.2 9.4 3.7 4.2-0.9 6.7-4.7 10.1-6.9 3.1-1.1 6.5-1.1 9.4-2.5 6.7-3 12.6-7.2 18.3-11.7 4.8-5.5 10.2-10.5 15.1-15.8 5.3-4.8 10.8-9.3 15.3-14.8 2.4-3 6-4.8 9.1-7 6-4.4 13.8-5.8 21.1-6.2 2.5-0.5 5.1 1.7 4.3 4.3-2 4.1-7.1 4.6-10.5 7-2.6 2-5.5 3.3-8.3 4.7-4.8 3-7.3 8.5-7.7 14-0.4 5.1-1.3 10.2-1.4 15.4 0 5.7-1.7 11.2-2.4 16.7-0.5 5-3.7 9.1-4 14.1-1.8 7-1 14.8-4.9 21.2-1.7 2.9-4.1 6.5-7.9 6.5-5.6 0.3-11.5-1.1-16.9 0.8 0 1.7-0.2 3.5 0.3 5.2 2.3 3.2 5.3 6.2 9.1 7.7 3 1.2 5.9 3.3 9.3 3.4 4.4 0.4 8.8 1.5 13.2 0.5 8.2-1.7 16.3 1.1 24.4 1.5 3.3-2.1 3.4-6.2 4.1-9.6 0.5-2.2 3.1-3.6 2.9-6 0-10.3-0.2-20.7 0-31 0.6-6.1 1.9-12.2 3-18.2 2.1-7.7 4-16.4 10.8-21.4 2.6-2.9 6.6-1.4 10-2.2 1.6-1 3-2.3 4.7-3.3 2.5-0.4 5.1-0.2 7.6-0.5 11.5-2.3 22.7-5.7 33.4-10.5 5.5-2.6 9.7-7.3 15-10.1 6.1 0.7 12.3 1.4 18.5 0.5 3.8-0.7 7.2-2.8 11-3.8 3.6-1 7.6-1.1 10.9-3.1 6.7-3.7 12.6-9.3 20.3-10.8 2.8-0.7 6.4-1.6 8.3 1.3 5.3 7.2 5.9 17.1 12.6 23.4 4.1 3.6 5.8 9.3 5.8 14.7 0.2 8.2-4.1 15.8-4.1 24-0.1 4 0.4 8.2-1.3 12-0.7 1.9-2.9 2.7-4.4 3.8-3.2 1.8-4.8 5.1-7.2 7.7-2 2.4-4.8 4-7 6.1-0.4 1.6-0.4 3.8 1.4 4.4 5.1 2.5 11.3 5 16.9 2.7 3.2-1.2 6.7-2.2 9-4.9 3.7-3.5 3.1-9.1 5.5-13.3 1.3-2.6 3.8-4.3 5-6.9 1.6-6.2 5-11.8 6.1-18.1 2-8.9 6.9-17.7 4.8-26.9-1.8-3.8-1.4-8.4-4-11.8-4.9-6.9-9.6-14.1-13.4-21.7-1.6-5.6-4.9-11.1-4.2-17.1 0.1-1.9 1.8-4.3 4-3.6 5 1.4 10.2 1.8 15.4 2.2 3.1 0.3 5.4-2.2 7.4-4.2 4.2-4.8 8.2-10.7 7.3-17.4 0.5-5.7-4.2-9.8-6.2-14.7-1.8-4.6-8.4-3-11.2-6.6-1.8-2.2-2.8-5-4.9-7-3-0.3-6 2.6-9 1.1-3.9-1.5-6.9-4.6-10.7-6.2-2.5-0.1-5.3 0.3-7.4 1.7-2.3 4 0.1 10.9-4.9 13.3-2.8 1.9-5.5-0.9-8-1.8-6.5-3.3-14.5-0.6-20.5-4.8 1.6-3.6 4.8-5.9 7.4-8.6 3.1-3.1 2.3-7.8 2.3-11.7-1.4-0.4-2.7-0.8-4-1.3-1.5-2-0.8-4.7-1-7-1.5 0.3-3.1 0.6-4.7 1.1-2-1.9-2-4.8-2.6-7.3l-3.6 1.8c-3.9-1.6-2.5-6.5-4.3-9.5-1.7-2.9-2.7-6.1-3.1-9.4-5.1 2.2-1.7 8.6-3.3 12.7-1.6 2.2-3.9 0.1-5.7-0.6 0.1 3.6 0.2 7.2-0.2 10.8-2-0.2-3.9-0.4-5.9-0.6 0.3 2.2 0.6 4.4 0.7 6.6-0.8 1.5-3 1.4-4.4 2.1 0.2 2.6 2.7 8.3-1.5 8.3-4.7-3.4-7.3-8.9-11.8-12.6-12.5-10.8-22.9-23.7-35.7-34.2-8.3-8.5-17.3-16.1-25.3-24.8-3.2-3.5-7.4-6.2-10.1-10.2-1.5-1.5 0.7-4.6 2.6-3.5 4.9 1.6 9.1 4.4 13.9 6.2 3.3 1.3 6.8 4.6 10.5 2.9 2.1-2.5 2.8-5.8 3.6-8.8-4.7-2.8-10-4.4-14.7-7.2-3-1.7-7.1-1.6-9.4-4.3-0.9-3.7 3.7-4.3 6.4-4.3h37c1.9 0.1 3.9-0.1 5.6-0.9 0.1-3 0.1-6.1-0.2-9.2-14.8-0.4-29.6 0.1-44.4-0.1-2.1 0.3-3.5-1.5-3.7-3.5 6.3-3.8 13.8-5 20.2-8.5 4.5-2.6 0.5-7.8-1.1-11-9.3 0-16.3 8.6-25.7 7.9 0.1-1.5 0.6-2.9 1.5-4.1 5.1-7.1 12-12.7 17.9-19.1 2.8-3.2 6.1-5.9 8.9-9.1 1.2-1.3 0.7-3.3-0.5-4.5-1.8-1.9-3.9-5-6.9-4-8.9 8.8-17.2 18.2-26.2 26.9-1.6 1.4-3.2 3.4-5.6 2.9-1.2-5.5 2.7-10.2 3.9-15.4 0.8-3.7 2.9-6.9 5.1-10-0.8-1-1.6-2.3-3.1-2.3-2.8-0.2-5.1-1.6-7-3.5-3.2 4.3-4.2 9.6-6.1 14.4-2 5-3.1 10.2-5.3 15-1.9 0.4-4.7 0.1-4.6-2.5-0.3-11.9 0.3-23.9-0.4-35.8-0.4-4 0.2-7.9 0.5-11.8-3.1-0.2-6.2-0.2-9.3 0.2z"/>
  <path id="path2822" style="stroke:#000000;stroke-width:.09375;fill:#000000" d="m424.5 281.6c3.1-0.4 6.2-0.4 9.3-0.2-0.3 3.9-0.9 7.8-0.5 11.8 0.7 11.9 0.1 23.9 0.4 35.8-0.1 2.6 2.7 2.9 4.6 2.5 2.2-4.8 3.3-10 5.3-15 1.9-4.8 2.9-10.1 6.1-14.4 1.9 1.9 4.2 3.3 7 3.5 1.5 0 2.3 1.3 3.1 2.3-2.2 3.1-4.3 6.3-5.1 10-1.2 5.2-5.1 9.9-3.9 15.4 2.4 0.5 4-1.5 5.6-2.9 9-8.7 17.3-18.1 26.2-26.9 3-1 5.1 2.1 6.9 4 1.2 1.2 1.7 3.2 0.5 4.5-2.8 3.2-6.1 5.9-8.9 9.1-5.9 6.4-12.8 12-17.9 19.1-0.9 1.2-1.4 2.6-1.5 4.1 9.4 0.7 16.4-7.9 25.7-7.9 1.6 3.2 5.6 8.4 1.1 11-6.4 3.5-13.9 4.7-20.2 8.5 0.2 2 1.6 3.8 3.7 3.5 14.8 0.2 29.6-0.3 44.4 0.1 0.3 3.1 0.3 6.2 0.2 9.2-1.7 0.8-3.7 1-5.6 0.9h-37c-2.7 0-7.3 0.6-6.4 4.3 2.3 2.7 6.4 2.6 9.4 4.3 4.7 2.8 10 4.4 14.7 7.2-0.8 3-1.5 6.3-3.6 8.8-3.7 1.7-7.2-1.6-10.5-2.9-4.8-1.8-9-4.6-13.9-6.2-1.9-1.1-4.1 2-2.6 3.5 2.7 4 6.9 6.7 10.1 10.2 8 8.7 17 16.3 25.3 24.8 12.8 10.5 23.2 23.4 35.7 34.2 4.5 3.7 7.1 9.2 11.8 12.6 4.2 0 1.7-5.7 1.5-8.3 1.4-0.7 3.6-0.6 4.4-2.1-0.1-2.2-0.4-4.4-0.7-6.6 2 0.2 3.9 0.4 5.9 0.6 0.4-3.6 0.3-7.2 0.2-10.8 1.8 0.7 4.1 2.8 5.7 0.6 1.6-4.1-1.8-10.5 3.3-12.7 0.4 3.3 1.4 6.5 3.1 9.4 1.8 3 0.4 7.9 4.3 9.5l3.6-1.8c0.6 2.5 0.6 5.4 2.6 7.3 1.6-0.5 3.2-0.8 4.7-1.1 0.2 2.3-0.5 5 1 7 1.3 0.5 2.6 0.9 4 1.3 0 3.9 0.8 8.6-2.3 11.7-2.6 2.7-5.8 5-7.4 8.6 6 4.2 14 1.5 20.5 4.8 2.5 0.9 5.2 3.7 8 1.8 5-2.4 2.6-9.3 4.9-13.3 2.1-1.4 4.9-1.8 7.4-1.7 3.8 1.6 6.8 4.7 10.7 6.2 3 1.5 6-1.4 9-1.1 2.1 2 3.1 4.8 4.9 7 2.8 3.6 9.4 2 11.2 6.6 2 4.9 6.7 9 6.2 14.7 0.9 6.7-3.1 12.6-7.3 17.4-2 2-4.3 4.5-7.4 4.2-5.2-0.4-10.4-0.8-15.4-2.2-2.2-0.7-3.9 1.7-4 3.6-0.7 6 2.6 11.5 4.2 17.1 3.8 7.6 8.5 14.8 13.4 21.7 2.6 3.4 2.2 8 4 11.8 2.1 9.2-2.8 18-4.8 26.9-1.1 6.3-4.5 11.9-6.1 18.1-1.2 2.6-3.7 4.3-5 6.9-2.4 4.2-1.8 9.8-5.5 13.3-2.3 2.7-5.8 3.7-9 4.9-5.6 2.3-11.8-0.2-16.9-2.7-1.8-0.6-1.8-2.8-1.4-4.4 2.2-2.1 5-3.7 7-6.1 2.4-2.6 4-5.9 7.2-7.7 1.5-1.1 3.7-1.9 4.4-3.8 1.7-3.8 1.2-8 1.3-12 0-8.2 4.3-15.8 4.1-24 0-5.4-1.7-11.1-5.8-14.7-6.7-6.3-7.3-16.2-12.6-23.4-1.9-2.9-5.5-2-8.3-1.3-7.7 1.5-13.6 7.1-20.3 10.8-3.3 2-7.3 2.1-10.9 3.1-3.8 1-7.2 3.1-11 3.8-6.2 0.9-12.4 0.2-18.5-0.5-5.3 2.8-9.5 7.5-15 10.1-10.7 4.8-21.9 8.2-33.4 10.5-2.5 0.3-5.1 0.1-7.6 0.5-1.7 1-3.1 2.3-4.7 3.3-3.4 0.8-7.4-0.7-10 2.2-6.8 5-8.7 13.7-10.8 21.4-1.1 6-2.4 12.1-3 18.2-0.2 10.3 0 20.7 0 31 0.2 2.4-2.4 3.8-2.9 6-0.7 3.4-0.8 7.5-4.1 9.6-8.1-0.4-16.2-3.2-24.4-1.5-4.4 1-8.8-0.1-13.2-0.5-3.4-0.1-6.3-2.2-9.3-3.4-3.8-1.5-6.8-4.5-9.1-7.7-0.5-1.7-0.3-3.5-0.3-5.2 5.4-1.9 11.3-0.5 16.9-0.8 3.8 0 6.2-3.6 7.9-6.5 3.9-6.4 3.1-14.2 4.9-21.2 0.3-5 3.5-9.1 4-14.1 0.7-5.5 2.4-11 2.4-16.7 0.1-5.2 1-10.3 1.4-15.4 0.4-5.5 2.9-11 7.7-14 2.8-1.4 5.7-2.7 8.3-4.7 3.4-2.4 8.5-2.9 10.5-7 0.8-2.6-1.8-4.8-4.3-4.3-7.3 0.4-15.1 1.8-21.1 6.2-3.1 2.2-6.7 4-9.1 7-4.5 5.5-10 10-15.3 14.8-4.9 5.3-10.3 10.3-15.1 15.8-5.7 4.5-11.6 8.7-18.3 11.7-2.9 1.4-6.3 1.4-9.4 2.5-3.4 2.2-5.9 6-10.1 6.9-3.5 0.5-7-1.2-9.4-3.7-2-2.8-1.2-6.5-1.1-9.7-1.2-2.7-3.9-4.2-5.3-6.7-4.6-8.7-4.6-19.4-0.6-28.3 0.9-2.6 4.2-1.8 6.3-1.6 5.2 2.3 6.2 8.6 9.3 12.8 1.5 1.8 4.1 0.9 6.1 1 4.3-5.4 8-11.6 13.8-15.6 7.9-5.3 13.7-12.9 20.8-19.1 4.5-3.9 8.2-8.6 13.1-12 4.1-2.8 6.9-7.3 11.7-9.1 5.3-2.3 10-6.3 15.8-7 4.6-0.3 9.3-0.1 13.9-0.1 5.4-0.1 10.4 2.2 15.8 2.2 8.2 0.9 16.4 1.9 24.7 2.1 7.7 2.3 15-2 21.5-5.6 3.6-2.4 8.2-4.2 10.3-8.2 0.7-2.1-0.4-4.1-2.4-4.9-6-2.8-12.4-4.7-18.8-6.3-6.1-1.4-10.9-5.7-16.5-8.4-4.5-2.3-7.7-6.5-11.9-9.4-2.7-1.3-5.4 0.9-7.9 1.8-3 1.8-6.5-0.1-9.7 0-3.4 1.6-6 5.3-10.1 5-2.4 0.5-5-1.2-4.7-3.8-0.4-3.7 2.3-6.5 4.6-9 3.1-3 6.1-6.5 10.5-7.2 3.8-0.7 7.5-2.1 11.4-2 6.6 1.6 13.6 0.9 19.8 3.7 6.3 1.7 12.3 4.3 18.7 5.7 4.2 1.4 8 4.1 12.3 5.3 4.4 1.2 8.7 2.8 13.3 3.1 3.8 0.1 6.7 3.5 10.5 3.1 2.4 0 4.9 0 7.3-0.8 2.5-0.8 3.6-4.2 2.1-6.4-2.5-3.9-7-5.7-10.3-8.9-14.1-13.8-27.9-28.2-41.3-42.7-8.1-5.1-13.9-12.8-21.2-18.9-7.3-6.6-12.9-14.9-21.1-20.5-0.7 0.8-1.5 1.6-2.2 2.5 2.9 6.1 5.2 12.6 8.9 18.5 1.5 2.5 2.9 5.8 1.5 8.7-2.7 1.7-5.9 2.9-9.2 2.3-1.4-4.8-2.9-9.5-5.3-13.9-2.2-3.9-3.3-8.3-5.6-12.1-2 0.1-3.6 1.5-3.4 3.6-0.3 9 0.1 18-0.1 27-0.4 6.2 1.8 12.4-0.2 18.5-3.4 1.4-7.1 1.2-10.7 1-0.6-16.3 0.2-32.5-0.5-48.8-3.3-0.8-5.6 2.6-6.1 5.5-1.2 6.3-4.7 11.9-6.9 17.9-2.7 1.4-5.8-0.1-8.5-0.9-1-4.7 2-9 3.4-13.4 1.5-4.3 4.7-8.2 4.3-13-0.8-0.1-2.5-0.2-3.3-0.3-5.9 4.6-10.1 11.1-16.5 15-2.8 1.7-5.8 3.6-7.5 6.5-2.1 3.1-3.3 7-6.8 8.8-2.7-2.1-5-4.5-7.1-7.1 1.3-2.5 3.9-3.9 5.6-6 5.7-6.9 12.4-12.9 18.8-19.2 2.3-2.5 6.7-4.3 5.8-8.4-1.5-0.9-3.3-2.2-5-1.1-3.5 1.8-7 3.3-10.8 4.4-2.9 0.8-5.8 2.8-9 2.1-2.8-0.5-4.1-3.6-4-6.2 1-1.6 2.8-2.4 4.4-3.2 4.6-2.1 9.2-4.2 13.9-6.1 1.7-0.8 3.6-1.4 4.7-3.1 0-1.6-1.6-2.4-2.9-2.3-14-0.2-28.1 0-42.1-0.1-0.3-3.1-0.3-6.1-0.1-9.2 15.2-2 30.5-0.1 45.7-1.3 0-1.6 1.2-4.4-1.2-4.9-5.1-1.9-10.4-3.4-15.2-5.9-2.9-1.7-6.2-2.4-9.4-3.4 1.4-3.5 2.9-7 4.3-10.5 4.1 0 7.7 2.2 11.3 4 4.2 3.2 9.2 5.2 14.1 7.2l2.6-2.6c-1.4-3.6-5-5.4-7.6-7.9-3.4-3.6-7.2-6.9-10.2-10.9-3.1-2.4-6.5-4.7-8.8-8.1-2-2.8-5.9-4.4-6.7-7.8 1.5-2.5 3.6-5.3 6.5-5.8 6.1 2.9 9.5 9.1 14.6 13.3 1.7 1.6 3.2 3.4 4.9 5.1 2 1.9 4.7 3.2 6.4 5.5 2.5 3.2 4.7 6.9 8.4 9 1.6 0.6 3.5-0.5 3.8-2.2-2.5-6.6-6.1-12.7-8.6-19.3-0.9-2.3-1.1-4.9-1-7.4 2-1 4.2-1.8 6.5-2.1 6.6 6.8 6.3 17.7 13.2 24.3 4.5-2 2.3-7.8 2.4-11.6 0-12.1-0.2-24.3 0.1-36.4m135.5 177.4c-1.4 1.7-1.3 4.1-1.8 6.1-4.5 2-5.7 7.5-4.3 11.8 4 3 7.9 7.3 13.3 7.7 4.7 0.4 7.5-4.4 9.2-8.1-0.8-3.4-0.4-6.9-0.2-10.4-1.2-0.2-2.4-0.5-3.6-0.8-0.2-1.4-0.3-2.8-0.4-4.2-1.6-1.3-3.1-2.6-5-3.5-2.3-1.5-5.1 0-7.2 1.4z"/>
  <path id="path2824" style="stroke:#ffff00;stroke-width:.09375;fill:#ffff00" d="m560 459c2.1-1.4 4.9-2.9 7.2-1.4 1.9 0.9 3.4 2.2 5 3.5 0.1 1.4 0.2 2.8 0.4 4.2 1.2 0.3 2.4 0.6 3.6 0.8-0.2 3.5-0.6 7 0.2 10.4-1.7 3.7-4.5 8.5-9.2 8.1-5.4-0.4-9.3-4.7-13.3-7.7-1.4-4.3-0.2-9.8 4.3-11.8 0.5-2 0.4-4.4 1.8-6.1z"/>
  <path id="path2826" style="stroke:#000000;stroke-width:.09375;fill:#000000" d="m279.3 806.2c5.4-6.7 14.7-7.4 22.7-7.9 6.2-0.7 12 1.8 17.5 4.3 6 2.6 8.9 9.7 8.2 16-4.4 0.1-8.9 0.1-13.4 0-1.4-2.3-2.3-4.9-4.1-6.8-3.4-2.1-7.3-3.3-11.2-4.1-3.3 0.6-6.8 1.7-9.4 4-1.8 2.9-1.6 7.3 1 9.7 1.7 1.9 4.4 1.9 6.8 2.5 4.5 0.7 8.8 2.7 13.3 3.7 4 0.9 8.4 1.4 11.8 4 2.5 2.1 4.6 4.7 6.4 7.4 2.7 3.8 1.5 8.7 1.7 13.1 0.3 4.1-1.1 8.4-4.6 10.9-4 2.8-8.3 5.6-13.2 6.5-5.2 1-10.4 2.9-15.7 2-3.7-0.6-7.4-1.4-10.8-2.9-7.2-4.5-14.1-11.9-13-21 4.3-0.2 8.6-1.6 12.9-0.9 1.6 3.6 2.3 8 5.9 10.3 6.4 4.4 15.2 4 21.6-0.3 1.9-2.5 3-5.6 3.1-8.7-1.8-3.7-5.3-6.8-9.4-7.5-4.4-0.9-8.8-2.2-13.2-3-7.5-1.3-14.2-6-18.3-12.3-1.3-6.4-1.1-13.8 3.4-19z"/>
  <path id="path2828" style="stroke:#000000;stroke-width:.09375;fill:#000000" d="m579.5 798.6c4.6-0.1 10-1.5 14.1 1.5-1.5 5.3 0.4 10.6 0 15.9-0.2 9 0.5 18-0.6 27 0.5 4.6 0.5 9.3 1 14 11.8 0.9 23.8 0.1 35.6 0.4 0.1 3.7 0.1 7.5 0 11.2h-49.2c0.1-19.2-0.1-38.4 0.1-57.6 0-4.2-1.2-8.2-1-12.4z"/>
  <path id="path2830" style="stroke:#000000;stroke-width:.09375;fill:#000000" d="m158.6 799.6c3.4-0.2 6.8-0.5 10.2-0.1 1.4 0 2.7 1.3 2.7 2.7 0.3 3.1 0.1 6.2-0.1 9.2-4.3 0.3-8.6 0.3-12.8 0-0.4-3.9-0.3-7.9 0-11.8z"/>
  <path id="path2832" style="stroke:#000000;stroke-width:.09375;fill:#000000" d="m86.3 805.9c-0.1-2.1-0.2-5.7 2.9-5.5 12.3-0.2 24.6 0 36.8 0 4.6-0.4 9.2 1.9 12 5.5 1.7 3.8 3.2 7.8 3.7 12-0.5 5.7-4.8 9.8-7.8 14.3 0.3 4.2 4.9 5.2 8 6.9 9.3 11.2-0.5 30.9-14.9 30.8-11.3 1.6-22.7 0.2-34 0.8-1.8 0-3.7-0.1-5.5-0.2-0.7-7.9 0.4-15.9-1-23.8-0.5-13.6 0-27.2-0.2-40.8m14.9 6c-2.5 2.3-1.5 6.1-1.7 9.1 0 2.8 0.9 7.1 4.5 6.8 6.6-0.3 13.2 1.8 19.7 0.1 4.4-1.3 5-6.9 4.5-10.8-1.6-3-4.5-5.9-8.1-5.5-6.3 0.1-12.7-0.4-18.9 0.3m-0.4 28.9c-0.3 5.3-0.7 10.7 0.1 16 1.5 1.8 3.8 2.6 6 2.4 5.9-0.4 11.8 1.2 17.6-0.4 3.2-0.5 5.4-3.2 6.6-6 1-3.5-0.7-7.3-3-9.9-3.3-2.1-7.3-2.5-11.1-2.4-5.4 0.1-10.8-0.1-16.2 0.3z"/>
  <path id="path2834" style="stroke:#ffff00;stroke-width:.09375;fill:#ffff00" d="m101.2 811.9c6.2-0.7 12.6-0.2 18.9-0.3 3.6-0.4 6.5 2.5 8.1 5.5 0.5 3.9-0.1 9.5-4.5 10.8-6.5 1.7-13.1-0.4-19.7-0.1-3.6 0.3-4.5-4-4.5-6.8 0.2-3-0.8-6.8 1.7-9.1z"/>
  <path id="path2836" style="stroke:#000000;stroke-width:.09375;fill:#000000" d="m704.8 816.9c5.7-1.4 11.8-2.2 17.6-1.1 5 1.8 10.6 3.5 13.7 8.1 1 1.2 0.5 2.9 0.4 4.4-2.6 0.6-5.3 1.8-8 1.1-2.6-1.7-4.7-4.3-7.8-5.2-4.7-1.8-9.9 0.2-13.6 3.2-1.6 2.4 1.2 5.2 3.3 6.3 6.2 1.9 12.6 3.2 19 4.1 5.4 1.3 8.8 6.3 10.5 11.3 1.7 4.3-0.1 9-2 12.8-3.4 4-8.6 5.7-13.6 6.3-6.3 1.1-12.6-0.2-18.8-0.9-3.7-1.6-6.5-4.7-9.2-7.6-1.4-1.3-0.9-3.4-1-5.1 3-0.5 6.1-1.5 9.2-1 3.8 2.8 7.4 6.7 12.5 6.8 4.5 0.9 8.8-1.9 10.9-5.7 1.4-2.4-1.6-4.5-3.5-5.2-8-2.6-17.6-1.8-24.3-7.5-8.3-6.6-5.4-21.9 4.7-25.1z"/>
  <path id="path2838" style="stroke:#000000;stroke-width:.09375;fill:#000000" d="m767.4 816.5c7.5-2.7 16.2 0 22.2 4.9 5.4 4.4 7 11.5 8.7 17.8 0.5 1.8-0.3 3.6-0.7 5.4-9.6 0.3-19.1-0.1-28.6 0.1-2.7-0.1-4.6 1.8-6.4 3.4 0.8 3.3 2 7.4 5.5 8.9 3.2 1.4 6.9 3.2 10.4 1.7 3.2-0.8 4.8-4.1 6.9-6.3 4.2-0.2 8.3 0.7 12.3 2-2.2 7.3-9 12.7-16.6 13.6-7.2 1.6-15 0.2-21-4.2-7.3-5.7-10.1-15.6-9.6-24.6 0.6-5.5 0.9-11.6 4.8-15.8 3-3.8 7.7-5.5 12.1-6.9m-2.9 16.2c-0.3 1.4-1.6 3.7 0.4 4.4 4.9 1.6 10.1 0.4 15.1 0.3 2.5 0.1 4.3-1.4 5.4-3.4-0.7-4.6-4.5-9.1-9.4-9.4-4.8 0.4-10.5 2.9-11.5 8.1z"/>
  <path id="path2840" style="stroke:#000000;stroke-width:.09375;fill:#000000" d="m829.7 815.8c3.2-0.8 6.6-0.7 9.9-0.3 3.4 2.4 2.1 7.5 0.4 10.6-2.8 1.3-5.9-0.8-8.8-0.2-3.6 1.5-6 4.7-7.2 8.3-1.5 3.4-0.6 7.2-1 10.9-0.6 5.6-0.2 11.3-0.3 16.9-0.2 1.5 0.2 3.5-1.4 4.3-3.6 0.7-7.3 0.4-10.9 0.3-0.1-5.9 0.1-11.7 0.1-17.6 0-5.1-1.8-10.2-0.7-15.4 1.2-5.2 0-10.6 0.9-15.9 1.6-2.1 4.5-1.4 6.7-1 2.5 0.5 4 2.8 5.7 4.5 2.2-1.8 4.2-3.8 6.6-5.4z"/>
  <path id="path2842" style="stroke:#000000;stroke-width:.09375;fill:#000000" d="m652.6 816.8c8-1.4 16.3-0.3 23.6 3 4 2.2 6.6 6.7 6.4 11.2-0.1 8.4 0.2 16.7 0 25-0.3 4 1.7 7.7 2.3 11.6-3.4 0.1-6.8 0.4-10.1-0.3-1.3-1-2.1-2.4-3.1-3.7-3.1 1.1-5.5 3.7-8.8 4.2-5.6 1.1-11.6 1.4-17.2 0.4-2.8-1.8-4.4-5-6-7.8-0.8-3.4-0.4-6.9-0.3-10.3-0.1-3.1 2.3-5.4 4.5-7.1 8-5.5 18.9-3 26.6-9 0-3.2-1.3-7.1-4.6-8.2-3.7-0.5-8.2-0.9-11.2 1.9-1.4 1.2-2.7 2.6-4.2 3.7-3.3 0.6-6.8 0.3-9.8-1.2-0.7-1-0.3-2.4 0.1-3.5 1.9-5 6.8-8.3 11.8-9.9m4.4 30.1c-3.3 0.9-5.6 3.9-6.4 7.1 0.5 3.1 3.7 5.3 6.5 6.3 4.7 0.9 10.4-1.2 12.5-5.8 1.4-3.1 0.8-6.5 0.5-9.7-4.5-0.5-8.9 0.8-13.1 2.1z"/>
  <path id="path2844" style="stroke:#000000;stroke-width:.09375;fill:#000000" d="m349.2 823.2c6.1-6.1 15.4-6.4 23.4-5.5 7.5 1.3 15.6 7.4 15.1 15.8-3.7 1-7.4 1.3-11.2 1.1-1.7-2.1-3.2-4.3-5.1-6-3.1-1.4-6.7-1.4-10-1-3.4 1.9-6 5.2-7 8.9-1.7 5.3-0.4 11 0.6 16.3 2.3 6.7 10.9 10 17.1 6.5 3.1-1.4 3.4-5.1 4.5-7.9 4-0.3 8 0.4 11.9 1.4 0.9 4.4-1.7 8.8-5 11.6-4.8 3.6-10.3 6.8-16.3 7.1-3.8-0.5-7.7-0.7-11.4-1.5-5-2.3-8.8-6.5-11.8-11-3.4-5-2.6-11.3-2.7-17-0.2-7 2-14.6 7.9-18.8z"/>
  <path id="path2846" style="stroke:#000000;stroke-width:.09375;fill:#000000" d="m405.5 820.5c5.3-3 11.8-3.6 17.8-2.7 3.2 0.5 6.7 0.6 9.6 2.4 3.4 1.6 4.3 5.6 6.3 8.5 3.5 4.9-0.2 10.9 0.5 16.3 0.9 5.5 0.5 11.1 1.6 16.6 0.4 2.3 0.4 4.6 0.2 6.9-2.7 0.2-5.4 0.6-8.1 0-1.9-0.8-3-2.6-4.5-3.9-5.2 5.7-13.6 7.2-20.8 5.2-4.3-0.4-7.9-3.2-9.8-7-3.8-5.5-1.4-13.1 3-17.5 3.9-2.7 8.6-4.3 13.2-5.5 5.1-0.5 10.7-1 14.8-4.6-0.9-2.4-1.6-5.2-3.9-6.6-3.3-2-7.4-2.7-10.9-1.3-3 1-5.1 3.7-7.9 5.2-2.8 0.1-5.6-0.6-8.4-1 1.4-4.2 3.2-8.8 7.3-11m8.7 27.6c-3.5 0.7-5.6 4.4-5.5 7.8 1.7 3.2 4.9 5.4 8.4 6.1 3.3-0.2 7-1 9.3-3.6 2.4-3.7 3.2-8.3 2.8-12.6-5.1-0.7-10.1 1.1-15 2.3z"/>
  <path id="path2848" style="stroke:#000000;stroke-width:.09375;fill:#000000" d="m469.8 823.2c2.7-2.1 4.3-6.3 8.2-5.9 6.7 0.1 13.3 0.2 20 0.1 2.4-0.1 5.2 0.7 6.2 3.2 2.8 6.4 4.9 13.1 7 19.8 1.3 3.7 0.5 9.1 4.9 11 1.6 0.5 2.6-1.3 2.8-2.6 2.1-9.2 5.3-18 8.2-26.9 0.4-1.4 1.4-2.4 2.2-3.5 3.5-0.1 7.1-0.2 10.6 0-0.2 4.5-3 8.2-4.2 12.4-1.6 6.3-4.8 12.1-6.5 18.5-2.6 5.5-2.5 11.9-5.7 17.3-2.4 6.2-5.8 11.9-7.6 18.3-5.8 5.4-14.1 5.1-21.5 4.8-0.2-3.1-0.2-6.2 0-9.3 3.5-0.1 7.8 0.5 10.5-2.6 2-2.3 4.4-5.4 3.2-8.6-2.1-6.2-3.8-12.6-6.6-18.6-1.1-2.4-1.7-5-2.3-7.6-0.6-3.3-2.7-6-3.9-9.1-1.6-3.6-2.4-7.7-5.3-10.6-2.2 1.5-3.7 3.8-4.9 6.2-3.7 0.2-7.3-1.5-11-0.7-4 1.9-5.8 6.4-6 10.6-0.3 5.3-1.9 10.7-0.8 16 0.9 4.5-0.7 8.9 0.1 13.4-3.7-0.1-7.4-0.1-11.1-0.2 0.1-13.8 0.1-27.7 0-41.6 0-2.6-0.1-5.3 0.9-7.7 3 0.2 6.6-0.9 9 1.5 1.2 0.8 2.1 2.3 3.6 2.4z"/>
  <path id="path2850" style="stroke:#000000;stroke-width:.09375;fill:#000000" d="m186.8 830.6c2.4-5.7 7.4-10.4 13.4-12.1 5.4-0.4 11.3-0.7 16 2.5 1.5 0.9 3 2 4.5 2.9 1-1.2 1.9-2.3 2.8-3.5 2.6 0 5.8-0.9 7.8 1.3 1.6 1.3 1.3 3.4 1.4 5.2-0.1 8.4 0 16.8-0.1 25.1-0.2 3.7 1.1 7.3 1.1 11 0.1 5-0.9 9.9-1.2 14.9-0.2 2.7-0.5 5.9-2.9 7.7-3 2.5-6.3 5.1-10.3 5.6-7.9 1-16 0.6-23.7-1-4.9-1.1-7.7-5.7-9.7-9.9-0.9-1.8 0.6-3.5 1.4-5 4.6 0.4 9.7 0.8 13.3 4.1 1.7 1.2 3.1 3 5.3 3 4.1 0.1 8.9 0.7 12.2-2.3 5.2-3.2 3.1-10.2 2.9-15.2-5.4-1.7-7.2 5.8-12.2 5.6-4.4 0.1-9.7 1.2-13.3-2-3.6-3.1-6.7-6.7-9.2-10.7-3.3-8.7-2.4-18.5 0.5-27.2m15.6-1.3c-4.4 2.5-5.2 8-5.8 12.6-1 7.1 2.4 15.7 9.7 18 4.3 2.3 8.8-1 12-3.6 5.6-8.2 3.7-20.6-3.6-27.1-3.9-1-8.5-1.1-12.3 0.1z"/>
  <path id="path2852" style="stroke:#000000;stroke-width:.09375;fill:#000000" d="m159.3 820.3c3.8 0.1 8.2-0.8 11.3 2.1 0.2 15.8 0 31.6 0.1 47.4-3.6 1.5-7.5 0.9-11.2 0.7-0.5-16.7 0.1-33.5-0.2-50.2z"/>
  <path id="path2854" style="stroke:#ffff00;stroke-width:.09375;fill:#ffff00" d="m764.5 832.7c1-5.2 6.7-7.7 11.5-8.1 4.9 0.3 8.7 4.8 9.4 9.4-1.1 2-2.9 3.5-5.4 3.4-5 0.1-10.2 1.3-15.1-0.3-2-0.7-0.7-3-0.4-4.4z"/>
  <path id="path2856" style="stroke:#ffff00;stroke-width:.09375;fill:#ffff00" d="m202.4 829.3c3.8-1.2 8.4-1.1 12.3-0.1 7.3 6.5 9.2 18.9 3.6 27.1-3.2 2.6-7.7 5.9-12 3.6-7.3-2.3-10.7-10.9-9.7-18 0.6-4.6 1.4-10.1 5.8-12.6z"/>
  <path id="path2858" style="stroke:#ffff00;stroke-width:.09375;fill:#ffff00" d="m100.8 840.8c5.4-0.4 10.8-0.2 16.2-0.3 3.8-0.1 7.8 0.3 11.1 2.4 2.3 2.6 4 6.4 3 9.9-1.2 2.8-3.4 5.5-6.6 6-5.8 1.6-11.7 0-17.6 0.4-2.2 0.2-4.5-0.6-6-2.4-0.8-5.3-0.4-10.7-0.1-16z"/>
  <path id="path2860" style="stroke:#ffff00;stroke-width:.09375;fill:#ffff00" d="m657 846.9c4.2-1.3 8.6-2.6 13.1-2.1 0.3 3.2 0.9 6.6-0.5 9.7-2.1 4.6-7.8 6.7-12.5 5.8-2.8-1-6-3.2-6.5-6.3 0.8-3.2 3.1-6.2 6.4-7.1z"/>
  <path id="path2862" style="stroke:#ffff00;stroke-width:.09375;fill:#ffff00" d="m414.2 848.1c4.9-1.2 9.9-3 15-2.3 0.4 4.3-0.4 8.9-2.8 12.6-2.3 2.6-6 3.4-9.3 3.6-3.5-0.7-6.7-2.9-8.4-6.1-0.1-3.4 2-7.1 5.5-7.8z"/>
  <path id="path2864" style="stroke:#000000;stroke-width:.09375;fill:#000000" d="m640.6 916.5c2.2-0.2 4.8-0.5 6.5 1.3 1.9 4.3-1.7 10.5 2.8 13.7 2.1-1.1 4.1-2.4 6.4-3.1 5.8-0.8 11.2 3.2 14.4 7.8 2.8 5.4 2.4 11.9 1 17.6-1.1 5.3-5.7 10.8-11.7 10-3.9 0.4-7.2-3.7-11.1-2-2.7 1-5.6 1.1-8.4 0.7-0.2-15.3-0.3-30.6 0.1-46m9.9 21c-2.5 2.2-3.1 5.7-3.3 8.9-1 6.3 5.3 12.7 11.7 10.8 8.7-4.4 7.9-18.4 0.1-23.5-3 0.6-6.3 1.3-8.5 3.8z"/>
  <path id="path2866" style="stroke:#000000;stroke-width:.09375;fill:#000000" d="m110.4 918.3c2.5-1.2 5.2-0.6 7.8-0.2 5.9 0.8 11.8 0 17.7 0.3 2.8 0.1 5.1 1.8 7.3 3.4 3.9 2.8 4.2 8.1 5.4 12.5 1.8 6.8 1 14-0.6 20.9-1.4 3.3-4.9 5.1-7.7 7.1-2.3 1.3-4.4 3.4-7.3 3.3-7.2 0-14.4 0.1-21.6 0-0.8-2.5-1.1-5-1-7.6 0.1-13.2-0.1-26.5 0-39.7m10.7 7.6c-2.9 6.3-0.9 13.4-1.5 20.1 0.4 3.6-1.2 8.1 1.6 11.1 5.7 0.4 12.6 1.8 17.1-2.7 3.3-3.2 3-8.2 3.1-12.4-0.1-4.1 0.8-8.8-2.4-12.1-4.3-5.1-11.8-4.7-17.9-4z"/>
  <path id="path2868" style="stroke:#000000;stroke-width:.09375;fill:#000000" d="m442.4 917.3c2.1 0 4.2 0 6.2 0.1 1.9 6.8 0.5 14 1.9 20.9 0.8 0.7 1.7 1.4 2.5 2.1 4.1-2.7 5.7-7.8 9.8-10.6 2.6-0.7 5.4-0.4 8.1-0.4-0.3 4.1-4.2 6.2-6.2 9.4-1.2 2-3.2 4.5-1.5 6.8 2.8 5.1 6.1 10 8.9 15.2 0.6 1.1 0.4 2.4 0.5 3.6-2.4 0.1-4.8 0.5-7.1 0.1-4.4-4-5.6-10.2-9.5-14.5-1.2 0.4-2.6 0.6-3.2 1.9-2.4 3.7-2.1 8.4-2.2 12.7-2.7 0.1-5.5 0.1-8.2 0 0.1-15.8 0-31.5 0-47.3z"/>
  <path id="path2870" style="stroke:#000000;stroke-width:.09375;fill:#000000" d="m499.6 917.5c1.9-0.2 3.8-0.3 5.7 0.1 2.9 6.6 0.1 13.7 1.1 20.6 0.4 8.5 0.2 17 0.2 25.5h-6.4c-1.4-3.4-0.8-7.1-0.9-10.7 0.3-11.8-0.3-23.7 0.3-35.5z"/>
  <path id="path2872" style="stroke:#000000;stroke-width:.09375;fill:#000000" d="m342.4 918.2c1.4 0.1 2.8 0.1 4.2 0.2 1.4 1.6 3.1 3.3 3 5.7 0.3 7.6-0.3 15.2 0 22.8 0.4 5.6-1.5 11.2 0.1 16.8-2.4 0.1-4.9 0.1-7.4 0 0.1-15.1 0-30.3 0.1-45.5z"/>
  <path id="path2874" style="stroke:#000000;stroke-width:.09375;fill:#000000" d="m300.9 925.7c0.8-4.5 5.8-5.8 9.6-6.6 0 3.6-0.1 7.3 0.4 10.9 1.5 0.2 3.1 0.4 4.7 0.6 0.7 1.9 1 3.8 1.1 5.7-2.6 0.6-6.1 0.7-6.9 3.8-0.5 5.3-0.2 10.6-0.1 15.8 2.6 2.2 7.9 4.8 5.1 8.7-4.4 0.3-10.3 1-12.2-4-0.9-7.1 0.6-14.4-1.7-21.3-0.8-1-1.8-1.8-2.6-2.8-0.8-3.8 1.6-7.3 2.6-10.8z"/>
  <path id="path2876" style="stroke:#000000;stroke-width:.09375;fill:#000000" d="m559.7 921.5c2-0.1 4-0.2 6-0.2 0.6 2 1 4.2 1.7 6.2 1.3 2.2 5.8 2.1 5.2 5.4 0.1 2.1-2.4 2.7-3.7 4-2.9 1.8-2 5.6-1.7 8.4 0.4 3.7-1.9 7.8 0.4 11.1 2 1.2 4.6 0.9 6.9 1.3 0.1 1.9 0.1 3.7-0.1 5.6-4.1 1-9.6 3-12.6-1.1-3.3-2.4-2.3-6.7-2.4-10.2-0.1-4.2 0.5-8.5-0.6-12.5-0.7-2.8-5.2-3.7-4.2-6.9 0.2-2.5 2.6-3.7 4.4-4.9 0.3-2.1 0.5-4.1 0.7-6.2z"/>
  <path id="path2878" style="stroke:#ffff00;stroke-width:.09375;fill:#ffff00" d="m121.1 925.9c6.1-0.7 13.6-1.1 17.9 4 3.2 3.3 2.3 8 2.4 12.1-0.1 4.2 0.2 9.2-3.1 12.4-4.5 4.5-11.4 3.1-17.1 2.7-2.8-3-1.2-7.5-1.6-11.1 0.6-6.7-1.4-13.8 1.5-20.1z"/>
  <path id="path2880" style="stroke:#000000;stroke-width:.09375;fill:#000000" d="m684 932c4.8-5.5 13.3-5.4 19.4-2.3 3.5 2.3 5.1 6.3 6.8 9.9 1.2 2.4 1.5 5.1 1.3 7.8-7.5 0.6-15.1-0.3-22.7 0.5-0.1 2.1-0.9 4.7 0.7 6.5 1.8 1.9 4.6 3.5 7.2 2.6 2.7-0.6 4.5-2.8 6.4-4.6 2 0.3 4 0.9 5.8 1.9-0.3 5.9-6.6 9.4-11.9 9.3-4.2-0.1-8.9-0.4-11.9-3.7-2.8-3-5.6-6.7-5.7-11-0.4-5.9-0.3-12.7 4.6-16.9m4.6 8c-0.5 2.5 2.4 3.6 4.4 3.5 3.3-0.2 7.3-0.4 9.3-3.4-1.1-2.2-2-5.1-4.6-6-4.1-1.9-8.3 2-9.1 5.9z"/>
  <path id="path2882" style="stroke:#000000;stroke-width:.09375;fill:#000000" d="m721.9 930c4.9-2.3 10.7-3.3 15.9-1.6 3.1 0.9 6.3 2.9 7.4 6.1 1.4 6.9-0.5 14 1 20.9 0.6 2.4 0.3 5-0.6 7.3-2.8 0.6-4.9-1.1-6.8-2.9-4.8 2-10 3.9-15.3 2.6-3-1.8-6.5-4.5-6.2-8.4-0.1-2.1-0.1-4.2 0.4-6.3 4.5-4.6 11.2-5 17-6.8 2.3-0.6 5.1-3.2 3.1-5.5-2.4-1.6-5.6-2.5-8.2-1-3.2 1.7-6.7 2.8-10.4 2.3-0.1-2.5 0.1-5.5 2.7-6.7m4.7 19.6c-1.6 2-1.9 6 1 7 3 1.7 6.7 0.1 9.3-1.7 2.3-2 1.3-5.4 1.3-8.1-4-0.5-8.8-0.6-11.6 2.8z"/>
  <path id="path2884" style="stroke:#000000;stroke-width:.09375;fill:#000000" d="m766.1 930.3c2-1 4-2.2 6.2-2.9 4.9-0.8 9.2 2.2 13.6 3.9 2.6-1.9 5.3-4.7 8.8-3.9 5.4-0.1 11.4 3.7 11 9.6-0.2 8.1 0.4 16.2-0.3 24.3-2.2 0.8-4.5 1.6-6.8 1.2-0.7-8.1 0.2-16.3-0.3-24.5-0.3-4.4-6.7-6-9.5-3.3-5.1 7.8-2.5 17.3-3.3 25.9-1.7 2.7-5.6 2.4-8.1 1.1-0.1-5.5-0.1-11.1 0-16.7 0-3.6 0.1-7.5-1.7-10.8-4.5-2.4-10 1.2-10.9 5.9-1.4 7 0.6 14.2-0.4 21.3-2.7 0.4-5.4 0.4-8.1 0.3 0.2-11.1-0.2-22.1 0.3-33.2 3.3-0.7 6.5 0.3 9.5 1.8z"/>
  <path id="path2886" style="stroke:#000000;stroke-width:.09375;fill:#000000" d="m527.8 933.2c4.1-5.6 13.4-6.6 18-1 4.1 5.6 1.8 12.7 1.2 19-0.7 3.5 0.7 6.9 0.6 10.4-1 3-4.8 1.9-7.2 2.2-0.8-9.4 2.2-19.7-3.2-28.1-1.8-2.3-4.9-0.6-7 0.4-3.4 1.3-4.4 5-5.1 8.2-0.9 3.3 0.3 6.7-0.2 10-0.3 3.1-0.4 6.3-0.3 9.5-2.1-0.1-4.2-0.5-6.2-1.1-0.2-8.2 0-16.5-0.1-24.7 0-2.7-0.3-5.5 0.8-8 3 0.7 5.7 2.8 8.7 3.2z"/>
  <path id="path2888" style="stroke:#000000;stroke-width:.09375;fill:#000000" d="m372.4 929.6c4.6-0.8 9.6 0 13.6 2.5 6.5 5.4 9.8 15.2 6.2 23.2-1.4 3.3-4.5 5.5-7.5 7.3-4.5 2.9-10.2 2.3-15.3 1.8-5-1.7-9.5-6-10.2-11.5-2.1-6.7 0.2-13.9 4.5-19.2 2.4-2.3 5.6-3.3 8.7-4.1m1.9 7.4c-6.4 1.4-8.2 8.9-7 14.5 1.2 4.5 6.6 8.5 11.1 6.1 5.6-1.6 7.9-8.6 6-13.7-1-4.5-5.2-9.1-10.1-6.9z"/>
  <path id="path2890" style="stroke:#000000;stroke-width:.09375;fill:#000000" d="m413.4 929.6c9.3-2.2 19.2 4.7 20.9 14 1.2 7-1.3 15.4-7.9 18.8-7.6 4.1-18.3 3.1-23.9-3.8-4.1-4.8-3.7-11.7-2.1-17.4 1.4-6 6.7-11.2 13-11.6m-1.4 8.4c-6.6 4.5-5.8 16.3 1.7 19.4 2.7 1.9 6.1 0.5 8.6-1 2.4-2.1 3.4-5.4 4-8.5-0.2-4.2-2.4-8.2-5.3-11.3-3-0.1-6.4-0.7-9 1.4z"/>
  <path id="path2892" style="stroke:#000000;stroke-width:.09375;fill:#000000" d="m590.4 929.6c5-0.7 10.5-0.7 14.8 2.3 7.2 3.9 8.5 13.2 7.1 20.6-1.3 3.3-3.1 6.5-5.7 9.1-6.5 4-15.2 3.6-21.6-0.6-4.7-4.3-6.4-10.8-5.7-17-0.8-6.7 4.3-13.7 11.1-14.4m1.9 6.6c-5.4 3.1-5.5 10.2-4.4 15.6 2.6 5.6 10.9 6.3 15 2.1 3.1-4.6 3.3-11.1-0.2-15.5-2.5-3-7-3.7-10.4-2.2z"/>
  <path id="path2894" style="stroke:#000000;stroke-width:.09375;fill:#000000" d="m171.4 930.6c5.2-0.8 11.3-0.1 15.2 3.8 5.4 7.4 6.6 18.1 1.9 26.1-4.7 3.6-10.9 6.1-17 4.9-5.5-0.9-10.5-4.7-13.4-9.4-1.3-4.4-0.9-9.1-0.5-13.6 2.1-5.9 7.3-11.2 13.8-11.8m-1.9 7.8c-1.9 2.9-3.3 6.2-3.9 9.6-0.1 3 1.3 5.9 3 8.3 2.5 3 6.9 3.1 10.3 1.7 3.1-2.1 4.9-6.2 4.6-10-0.2-3.9-1.5-8.7-5.8-9.9-2.5-0.7-6-1.3-8.2 0.3z"/>
  <path id="path2896" style="stroke:#000000;stroke-width:.09375;fill:#000000" d="m229 932.6c4.6-1.9 9.5-3.1 14.5-2 3.6 2.2 6.1 6.2 6 10.5 0.1 8.1 0.2 16.2-0.1 24.3-2.6 0.2-5.3 0.3-8 0.3 0-4.4 0.1-8.8-0.7-13.2-0.7-4.9 0.7-10.5-2.3-14.9-2.4-2.1-5.7-0.6-8.1 0.7-3 1.7-3.8 5.4-3.7 8.7-0.1 5.8 0.3 11.7-0.1 17.5-2.1 0.1-4.2 0.2-6.2 0.3-1.3-2.8-0.9-5.9-1-8.8 0.1-8.2 0-16.5 0.1-24.7 3.3-0.4 6.5 0.4 9.6 1.3z"/>
  <path id="path2898" style="stroke:#000000;stroke-width:.09375;fill:#000000" d="m269.6 930.7c5.6-0.4 12.6-1.9 16.9 2.8 5.3 4 5.8 11.2 6.1 17.3-1.9 4.8-4.1 10.2-8.5 13.1-6.3 2.7-13.9 2.2-19.8-1.2-3.4-2.4-6.2-6.3-6-10.7 0.1-3.1-0.8-6.3-0.5-9.4 1.9-5.4 6.3-10.1 11.8-11.9m1.7 6.5c-3.8 1.3-6.5 5.6-5.4 9.6 0.9 4.2 1.7 9.6 6.2 11.4 3.1 0.5 7.1 0.9 9.4-1.8 4.3-4.1 3.3-10.9 0.8-15.7-2.2-3.8-7-5.2-11-3.5z"/>
  <path id="path2900" style="stroke:#ffff00;stroke-width:.09375;fill:#ffff00" d="m650.5 937.5c2.2-2.5 5.5-3.2 8.5-3.8 7.8 5.1 8.6 19.1-0.1 23.5-6.4 1.9-12.7-4.5-11.7-10.8 0.2-3.2 0.8-6.7 3.3-8.9z"/>
  <path id="path2902" style="stroke:#ffff00;stroke-width:.09375;fill:#ffff00" d="m688.6 940c0.8-3.9 5-7.8 9.1-5.9 2.6 0.9 3.5 3.8 4.6 6-2 3-6 3.2-9.3 3.4-2 0.1-4.9-1-4.4-3.5z"/>
  <path id="path2904" style="stroke:#ffff00;stroke-width:.09375;fill:#ffff00" d="m592.3 936.2c3.4-1.5 7.9-0.8 10.4 2.2 3.5 4.4 3.3 10.9 0.2 15.5-4.1 4.2-12.4 3.5-15-2.1-1.1-5.4-1-12.5 4.4-15.6z"/>
  <path id="path2906" style="stroke:#ffff00;stroke-width:.09375;fill:#ffff00" d="m271.3 937.2c4-1.7 8.8-0.3 11 3.5 2.5 4.8 3.5 11.6-0.8 15.7-2.3 2.7-6.3 2.3-9.4 1.8-4.5-1.8-5.3-7.2-6.2-11.4-1.1-4 1.6-8.3 5.4-9.6z"/>
  <path id="path2908" style="stroke:#ffff00;stroke-width:.09375;fill:#ffff00" d="m374.3 937c4.9-2.2 9.1 2.4 10.1 6.9 1.9 5.1-0.4 12.1-6 13.7-4.5 2.4-9.9-1.6-11.1-6.1-1.2-5.6 0.6-13.1 7-14.5z"/>
  <path id="path2910" style="stroke:#ffff00;stroke-width:.09375;fill:#ffff00" d="m412 938c2.6-2.1 6-1.5 9-1.4 2.9 3.1 5.1 7.1 5.3 11.3-0.6 3.1-1.6 6.4-4 8.5-2.5 1.5-5.9 2.9-8.6 1-7.5-3.1-8.3-14.9-1.7-19.4z"/>
  <path id="path2912" style="stroke:#ffff00;stroke-width:.09375;fill:#ffff00" d="m169.5 938.4c2.2-1.6 5.7-1 8.2-0.3 4.3 1.2 5.6 6 5.8 9.9 0.3 3.8-1.5 7.9-4.6 10-3.4 1.4-7.8 1.3-10.3-1.7-1.7-2.4-3.1-5.3-3-8.3 0.6-3.4 2-6.7 3.9-9.6z"/>
  <path id="path2914" style="stroke:#ffff00;stroke-width:.09375;fill:#ffff00" d="m726.6 949.6c2.8-3.4 7.6-3.3 11.6-2.8 0 2.7 1 6.1-1.3 8.1-2.6 1.8-6.3 3.4-9.3 1.7-2.9-1-2.6-5-1-7z"/>
  <path id="path2916" style="stroke:#000000;stroke-width:.09375;fill:#000000" d="m254.5 994.2c0.3-3.9 5.3-2.7 8-2.8 1.2 4.9 0.9 9.9 1.3 14.9 4.7 1.3 8.7-3.6 13.3-1.3 5.7 0.9 7.1 7.2 7.5 12 0.5 6.6 2.1 13.4 0.3 19.9-0.6 2.9-4.3 1.5-6.4 1.7-1-8.5 1.7-18-3.5-25.5-2.9-3.2-8.1-1.4-9.9 2.1-3.4 7.6-2 16.2-2.7 24.3-2.7 0.4-5.4 0.1-8-0.9 0.1-14.8-0.1-29.6 0.1-44.4z"/>
  <path id="path2918" style="stroke:#000000;stroke-width:.09375;fill:#000000" d="m475.3 991.3c2.5 0 4.9 0 7.4 0.1 1 2.2 1 4.7 1 7.2-3.1 0.1-6.2 0.1-9.2-0.2-0.2-2.4-0.3-4.8 0.8-7.1z"/>
  <path id="path2920" style="stroke:#000000;stroke-width:.09375;fill:#000000" d="m535.3 991.3c2 0 4.1 0 6.2 0.1 0.5 2.4 1 4.8 1.2 7.3-2.4 0-4.8 0-7.2-0.2-0.2-2.4-0.3-4.8-0.2-7.2z"/>
  <path id="path2922" style="stroke:#000000;stroke-width:.09375;fill:#000000" d="m213.4 992.3c2.7-0.1 5.4 0 8.1 0.3 0.2 2.2 0.2 4.5 0 6.8-2.7 0.3-5.4 0.4-8.1 0.3-0.1-2.5-0.1-4.9 0-7.4z"/>
  <path id="path2924" style="stroke:#000000;stroke-width:.09375;fill:#000000" d="m233.7 997.7c1.9-2.4 5.1-2.3 7.9-2.5 0 2.9-0.2 5.8 0.4 8.6 1.7 1.2 3.7 1.9 5.7 2.8 0 1.5-0.1 3-0.3 4.5-2.2 0.8-5.8 0.8-5.7 3.9-0.6 4.9-0.8 10 0.3 14.8 0.3 3.9 6.6 2.4 6.6 6.3 0.5 2.2-1.6 3.8-3.7 3.6-3.7 0.1-9.2 0.4-10.5-4.1-2.3-6.9-0.3-14.4-1.2-21.5-1.6-1.8-4.4-3.3-4-6.1-0.1-1.6 1.2-2.7 1.9-4 1.4-1.9 1.4-4.4 2.6-6.3z"/>
  <path id="path2926" style="stroke:#000000;stroke-width:.09375;fill:#000000" d="m729 1009c2.5-3.3 5.8-6.6 10.1-6.6 5.7-0.8 11.9 1.3 15.6 5.9 2.8 3.7 3.2 8.6 2.8 13.1-5.8 0.6-11.6-0.1-17.5 0.4-1.8 0-3.2 1.1-4.6 2.2 0.3 3.6 3.1 6.7 6.6 7.4 2.8 0.2 5-1.7 7.1-3.3 2-1.7 4.6-0.2 6.7 0.3-0.1 2.2-0.2 4.7-2.3 6.1-4.9 3.6-11.7 3.8-17.5 2.3-3.4-0.8-5.3-4-7-6.7-2.2-3.7-1.6-8.1-1.7-12.1 0.1-3.1-0.3-6.5 1.7-9m5.7 6.1c0.7 1.1 1.8 2.2 3.3 2.2 3.6 0.2 7.8 0.6 10.9-1.6 1.6-2.7-0.4-6-3.2-6.6-4.7-1.9-9.5 1.6-11 6z"/>
  <path id="path2928" style="stroke:#000000;stroke-width:.09375;fill:#000000" d="m563.9 1006.1c4.7-3.7 10.8-3.1 16.1-1.3 1 2.8 2.4 5.5 3.1 8.4-0.1 2.3-0.8 4.5-0.3 6.8 1.2 5.7 0.8 11.6 0.6 17.4-2 0.3-4.1 0.4-6.1 0.3-2.3-7.9 0-16.4-1.2-24.5-0.8-3.2-4.7-2.8-7.1-2.7-4-0.2-6.4 3.9-6.4 7.5-0.3 6.8 0.3 13.6-0.2 20.4-2.9 0.3-5.9 0.3-8.8 0-0.4-6.8-0.1-13.6-0.2-20.4 0.1-4.6-0.4-9.3 1-13.7 3.3-0.2 6.4 0.8 9.5 1.8z"/>
  <path id="path2930" style="stroke:#000000;stroke-width:.09375;fill:#000000" d="m601.6 1003.7c3.7-1.1 7.6 0.1 10.9 1.9 3.8 2.6 7.9-1.2 12-0.2 0.5 9.5-0.2 19.1 0.2 28.6 0.1 5.2 0.1 11.1-3.1 15.5-7.8 2.7-17.1 3.5-24.5-0.6-2.4-1.3-2.5-4.3-3-6.7 4.3-2.6 9 0.8 12.7 3.1 3.6 2.8 7.8-0.9 10.5-3.3 0.2-2.3 0.1-4.7-0.3-7-5 1.3-10 4-15.3 2.2-4.9-2.4-8.7-7.6-8.4-13.2 0.1-4.1-0.3-8.3 0.5-12.3 1.8-3.3 4.6-6.1 7.8-8m4.8 6.5c-4.2 2.2-5.8 7.3-5.7 11.7 1 4.7 4.5 10.9 10.2 9.3 6-2.7 8-10.7 5.5-16.5-1.2-3.9-6.3-6.3-10-4.5z"/>
  <path id="path2932" style="stroke:#000000;stroke-width:.09375;fill:#000000" d="m656 1008c3.6-5.4 10.4-4.9 16-4.6 4.3-0.1 7.4 3.6 9.7 6.8 2.6 3.3 1.9 7.7 1.9 11.5-6.6 2.2-13.7 0-20.5 1.1-1.8 0.2-2.6 2.2-1.8 3.7 0.6 2.8 3 4.9 5.8 5.7 4-0.1 6.7-4.5 10.9-4 1.3-0.1 2.7 0.4 3.9 0.9-0.6 1.9-0.9 4-2.3 5.5-6 3.3-13.4 5.7-20.2 2.9-2.9-1.9-6-4.7-6-8.5-0.8-7-3-15.3 2.6-21m8 2c-1.6 1.1-4 2.5-3.4 4.9 0.7 2.4 3.7 2.9 5.8 2.7 3.2-0.2 7.1 0.4 9.2-2.6-0.9-5-7.4-8.1-11.6-5z"/>
  <path id="path2934" style="stroke:#000000;stroke-width:.09375;fill:#000000" d="m713.9 1003.9c2-1.2 4.6-0.4 6.8-0.6 0.3 1 1.2 2.2 0.6 3.3-5.1 11-8 22.8-12.8 34-1.4 3-2.3 6.7-5.3 8.5-3.6 2.2-7.9 1.5-11.9 1.5-0.4-1.5-0.8-2.9-1.1-4.4 3.8-1.7 9.1-2.4 10-7.3-0.8-8.5-4.9-16.1-8.2-23.8-2.1-3.3-3.2-7-2.7-10.8 2.2 0.2 5.5-1 6.6 1.7 3.2 6.3 3.6 13.9 8.1 19.5 1.3-0.4 3.4-0.3 3.6-1.9 1.5-6.7 2.8-13.7 6.3-19.7z"/>
  <path id="path2936" style="stroke:#000000;stroke-width:.09375;fill:#000000" d="m327.7 1004.9c2.2-0.8 4.6-0.6 7-0.5 1.5 2.5 0.5 5.4-0.4 7.9-3 0.4-6.1 0-9 0.9-2.2 2.5-3.4 6-3 9.4 0.2 5.3 1.1 10.8-0.5 16-2.2 0.1-4.3 0.1-6.5 0.1 0.4-5.5-0.5-11-0.7-16.4 1-5.7-0.8-11.4 0.9-17 4-0.2 8.2 1.1 12.2-0.4z"/>
  <path id="path2938" style="stroke:#000000;stroke-width:.09375;fill:#000000" d="m344.7 1006.8c5.6-3.9 13.4-2.7 18.9 0.6 4.4 4.1 5.5 10.4 5.1 16.1-6.9 1-13.9 1-20.9 1.5-1 4.1 2.8 8.6 6.9 8.7 2.8 0.3 4.3-2.3 6.3-3.7 2.2-1.2 4.7-0.6 6.8 0.4 0.3 3.8-2.9 6.4-5.7 8.5-4.3 2-9.2 1.7-13.6 0.4-6.1-2-9.6-8.3-10.2-14.3 0-6.5 0.8-14.1 6.4-18.2m5.6 5.3c-1.9 1-3.6 3.5-2.3 5.6 1.4 2.4 4.7 1.5 7 1.8 2.1-0.2 5.5 0.3 6-2.5-0.4-1.9-0.9-4.5-3.1-5.2-2.5-0.4-5.2-0.7-7.6 0.3z"/>
  <path id="path2940" style="stroke:#000000;stroke-width:.09375;fill:#000000" d="m387.1 1007.7c3.5-0.3 6.1-3.9 9.8-3.4 3.6-0.3 6.5 2.1 9.3 3.9 3.2-1.5 6-4.3 9.8-3.9 2.4 0.1 5.3-0.3 7.2 1.5 2 2.2 3.5 5.1 3.5 8.2 0 7.9-0.1 15.8 0 23.7-2.6 1.3-5.5 1.3-8.2 0.5 1.8-5.9 0.5-12.2 0.9-18.2-0.1-2.6 0.6-5.8-1.5-7.9-2.6-2.9-7.2-1-9.3 1.6-1.8 4.6-3 9.7-2.3 14.7 0.3 3.4 0.9 7.1-0.6 10.4-2 0-4.1-0.1-6.2-0.3-0.7-6.8 0.1-13.7-0.2-20.5-0.2-3.2-2.3-6.3-5.3-7.2-3.2 0.5-7.1 1.5-8.5 4.7-0.3 7.7 0.9 15.5-1.2 23-1.8 0.2-3.7 0.1-5.5-0.2-1.5-4.1-1.7-8.4-1.1-12.7 1.1-6.7 0.3-13.6 0.7-20.4 3.2-0.4 6 0.9 8.7 2.5z"/>
  <path id="path2942" style="stroke:#000000;stroke-width:.09375;fill:#000000" d="m443.5 1004.6c4.7-0.5 9.4-0.5 14.1 0 2.7 1.2 5.5 3.1 6.9 5.8 0.2 9.1-0.6 18.4 1.3 27.4-3 2.2-6.4-0.1-9.6-0.5-3.1 0.7-5.9 2.6-9.2 2.4-4.1 0.3-8.4-1.5-10.5-5.2-0.3-3.5-0.7-7.3 0.4-10.7 4-4.4 10.4-4.8 15.9-5.8 3.3-0.2 5.3-5.3 2-7-4.5-1.8-8.7 0.6-11.9 3.6-1.8-0.4-3.6-0.9-5.4-1.4-0.8-3.9 3.4-6.4 6-8.6m5.8 19.4c-2 0.7-4.7 0.9-5.7 3.1-0.2 2.9 2 5.6 4.7 6.6 5.1 0.6 10.4-4.5 8.6-9.6-2.4-1.1-5.1-0.6-7.6-0.1z"/>
  <path id="path2944" style="stroke:#000000;stroke-width:.09375;fill:#000000" d="m493.5 1009.1c0-1.9 0.5-4.7 2.8-4.8 2.7-0.5 4.8 1.5 6.9 2.9 3.9-2.4 8.6-3.9 13.1-2.5 2.3 1.3 4.3 3 5.7 5.1 2.1 6.2 1.2 12.8 1.6 19.2 0.1 2.4 0.4 4.9-0.3 7.3-1.3 2-4 1.2-6 1.4-1.4-3.4 0.3-7.1-0.3-10.6-0.8-4.3-0.4-8.7-0.9-13-1.5-3.1-5.3-5.7-8.8-4-4.4 1.5-6.2 6.6-6 10.9 0.3 5.4 0.5 10.9 0 16.3-2.5 1.1-5.2 1.4-7.9 1.5 0-9.9 0-19.8 0.1-29.7z"/>
  <path id="path2946" style="stroke:#000000;stroke-width:.09375;fill:#000000" d="m158.5 1005.5c2.6 0.1 6.8-1.3 7.9 2 1.5 5.8 3.8 11.4 5 17.3 0.4 0.1 1.2 0.5 1.6 0.6 4.5-4.8 3-11.8 4.9-17.6 1.7-2.4 4.9-2.8 7.6-2.3 1.8 0.8 3.1 2.6 3 4.6 0.4 5.1 1.5 10.3 4.5 14.6 1.3-0.7 2.4-1.6 2.8-3 1.8-5 2.3-10.3 3.8-15.3 2.4-0.1 4.8-0.2 7.2-0.1 0.1 5-1.6 9.8-3.1 14.5-1.7 6.2-3.5 12.3-5.6 18.4-2.9 0.4-6.8 1.5-8.8-1.5-3-4.5-2.7-10.3-5-15.1l-2.4-1.2c-2.4 5.7-2.8 12.2-5.8 17.7-2.6 1.1-5.5 0.4-8.3 0.2-2.1-5.9-3.6-12.1-6-18-2-5-3.2-10.3-3.3-15.8z"/>
  <path id="path2948" style="stroke:#000000;stroke-width:.09375;fill:#000000" d="m213.4 1006.3c2.1-0.8 4.6-1.5 6.8-0.5 2 2.2 2 5.5 2.3 8.3 0.2 8.5 0 17 0.1 25.5-3.1 0.1-6.1 0.1-9.2 0v-33.3z"/>
  <path id="path2950" style="stroke:#000000;stroke-width:.09375;fill:#000000" d="m475.4 1005.2c2 0 3.9 0.1 5.9 0.3 2 10.6 1.4 21.4 1.2 32-2.3 0.3-4.7 0.3-7 0-0.3-10.7-0.1-21.5-0.1-32.3z"/>
  <path id="path2952" style="stroke:#000000;stroke-width:.09375;fill:#000000" d="m535.6 1005.5c2.1-0.1 5.2-1 6.2 1.6 1.5 3.1 0.6 6.6 0.9 9.9-0.3 6.2 0.3 12.4-0.2 18.6-0.7 2.7-4.1 2-6.2 2.2-1.6-3.4-0.8-7.2-0.9-10.8 0.2-7.2-0.5-14.4 0.2-21.5z"/>
  <path id="path2954" style="stroke:#ffff00;stroke-width:.09375;fill:#ffff00" d="m664 1010c4.2-3.1 10.7 0 11.6 5-2.1 3-6 2.4-9.2 2.6-2.1 0.2-5.1-0.3-5.8-2.7-0.6-2.4 1.8-3.8 3.4-4.9z"/>
  <path id="path2956" style="stroke:#ffff00;stroke-width:.09375;fill:#ffff00" d="m734.7 1015.1c1.5-4.4 6.3-7.9 11-6 2.8 0.6 4.8 3.9 3.2 6.6-3.1 2.2-7.3 1.8-10.9 1.6-1.5 0-2.6-1.1-3.3-2.2z"/>
  <path id="path2958" style="stroke:#ffff00;stroke-width:.09375;fill:#ffff00" d="m606.4 1010.2c3.7-1.8 8.8 0.6 10 4.5 2.5 5.8 0.5 13.8-5.5 16.5-5.7 1.6-9.2-4.6-10.2-9.3-0.1-4.4 1.5-9.5 5.7-11.7z"/>
  <path id="path2960" style="stroke:#ffff00;stroke-width:.09375;fill:#ffff00" d="m350.3 1012.1c2.4-1 5.1-0.7 7.6-0.3 2.2 0.7 2.7 3.3 3.1 5.2-0.5 2.8-3.9 2.3-6 2.5-2.3-0.3-5.6 0.6-7-1.8-1.3-2.1 0.4-4.6 2.3-5.6z"/>
  <path id="path2962" style="stroke:#ffff00;stroke-width:.09375;fill:#ffff00" d="m449.3 1024c2.5-0.5 5.2-1 7.6 0.1 1.8 5.1-3.5 10.2-8.6 9.6-2.7-1-4.9-3.7-4.7-6.6 1-2.2 3.7-2.4 5.7-3.1z"/>
  <metadata>
    <rdf:RDF>
      <cc:Work>
        <dc:format>image/svg+xml</dc:format>
        <dc:type rdf:resource="http://purl.org/dc/dcmitype/StillImage"/>
        <cc:license rdf:resource="http://creativecommons.org/licenses/publicdomain/"/>
        <dc:publisher>
          <cc:Agent rdf:about="http://openclipart.org/">
            <dc:title>Openclipart</dc:title>
          </cc:Agent>
        </dc:publisher>
        <dc:title>scary laser</dc:title>
        <dc:date>2008-11-25T23:10:41</dc:date>
        <dc:description/>
        <dc:source>https://openclipart.org/detail/20408/scary-laser-by-wrywry</dc:source>
        <dc:creator>
          <cc:Agent>
            <dc:title>wrywry</dc:title>
          </cc:Agent>
        </dc:creator>
        <dc:subject>
          <rdf:Bag>
            <rdf:li>humor</rdf:li>
            <rdf:li>lab</rdf:li>
            <rdf:li>laser</rdf:li>
            <rdf:li>physics</rdf:li>
            <rdf:li>sign</rdf:li>
            <rdf:li>symbol</rdf:li>
            <rdf:li>warning</rdf:li>
          </rdf:Bag>
        </dc:subject>
      </cc:Work>
      <cc:License rdf:about="http://creativecommons.org/licenses/publicdomain/">
        <cc:permits rdf:resource="http://creativecommons.org/ns#Reproduction"/>
        <cc:permits rdf:resource="http://creativecommons.org/ns#Distribution"/>
        <cc:permits rdf:resource="http://creativecommons.org/ns#DerivativeWorks"/>
      </cc:License>
    </rdf:RDF>
  </metadata>
</svg>
